<?xml version="1.0" encoding="utf-8"?>
<!-- Generator: Adobe Illustrator 27.5.0, SVG Export Plug-In . SVG Version: 6.00 Build 0)  -->
<svg version="1.1" xmlns="http://www.w3.org/2000/svg" xmlns:xlink="http://www.w3.org/1999/xlink" x="0px" y="0px"
	 viewBox="0 0 600 500" style="enable-background:new 0 0 600 500;" xml:space="preserve">
<g id="BACKGROUND">
	<rect style="fill:#FFFFFF;" width="600" height="500"/>
</g>
<g id="OBJECTS">
	<g>
		<g>
			<path style="fill:#FFFFFF;stroke:#222221;stroke-width:1.2476;stroke-miterlimit:10;" d="M464.29,344.669H126.017
				c-3.637,0-6.586-2.949-6.586-6.586V73.061c0-3.637,2.949-6.586,6.586-6.586H464.29c3.637,0,6.586,2.949,6.586,6.586v265.022
				C470.876,341.72,467.927,344.669,464.29,344.669z"/>
			<g style="opacity:0.2;">
				
					<line style="fill:none;stroke:#222221;stroke-width:1.2476;stroke-miterlimit:10;" x1="173.358" y1="71.894" x2="173.358" y2="339.249"/>
				
					<line style="fill:none;stroke:#222221;stroke-width:1.2476;stroke-miterlimit:10;" x1="222.076" y1="71.894" x2="222.076" y2="339.249"/>
				
					<line style="fill:none;stroke:#222221;stroke-width:1.2476;stroke-miterlimit:10;" x1="270.794" y1="71.894" x2="270.794" y2="339.249"/>
				
					<line style="fill:none;stroke:#222221;stroke-width:1.2476;stroke-miterlimit:10;" x1="319.512" y1="71.894" x2="319.512" y2="339.249"/>
				
					<line style="fill:none;stroke:#222221;stroke-width:1.2476;stroke-miterlimit:10;" x1="368.231" y1="71.894" x2="368.231" y2="339.249"/>
				
					<line style="fill:none;stroke:#222221;stroke-width:1.2476;stroke-miterlimit:10;" x1="416.949" y1="71.894" x2="416.949" y2="339.249"/>
				
					<line style="fill:none;stroke:#222221;stroke-width:1.2476;stroke-miterlimit:10;" x1="124.639" y1="110.853" x2="465.869" y2="110.853"/>
				
					<line style="fill:none;stroke:#222221;stroke-width:1.2476;stroke-miterlimit:10;" x1="124.639" y1="148.326" x2="465.869" y2="148.326"/>
				
					<line style="fill:none;stroke:#222221;stroke-width:1.2476;stroke-miterlimit:10;" x1="465.869" y1="185.799" x2="124.639" y2="185.799"/>
				
					<line style="fill:none;stroke:#222221;stroke-width:1.2476;stroke-miterlimit:10;" x1="124.639" y1="223.272" x2="465.869" y2="223.272"/>
				
					<line style="fill:none;stroke:#222221;stroke-width:1.2476;stroke-miterlimit:10;" x1="124.639" y1="260.745" x2="465.869" y2="260.745"/>
				
					<line style="fill:none;stroke:#222221;stroke-width:1.2476;stroke-miterlimit:10;" x1="124.639" y1="298.218" x2="465.869" y2="298.218"/>
			</g>
			<path style="fill:none;stroke:#222221;stroke-width:1.2476;stroke-miterlimit:10;" d="M463.421,339.249H126.886
				c-1.241,0-2.247-1.006-2.247-2.247V74.141c0-1.241,1.006-2.247,2.247-2.247h336.534c1.241,0,2.247,1.006,2.247,2.247v262.862
				C465.667,338.243,464.661,339.249,463.421,339.249z"/>
			<rect x="114.149" y="57.205" style="fill:#222221;" width="361.871" height="14.689"/>
			<polygon style="fill:#222221;" points="164.827,470.795 149.273,470.795 162.187,344.669 177.742,344.669 			"/>
			<polygon style="fill:#222221;" points="432.61,470.795 448.165,470.795 435.25,344.669 419.696,344.669 			"/>
		</g>
		
			<line style="fill:none;stroke:#222221;stroke-width:1.2476;stroke-miterlimit:10;" x1="236.839" y1="110.853" x2="319.512" y2="110.853"/>
		<g>
			<polygon style="fill:#EE881A;" points="251.308,339.249 251.308,148.326 256.299,148.326 245.07,135.928 233.842,148.326 
				238.832,148.326 238.832,339.249 			"/>
			<polygon style="fill:#F4B319;" points="293.728,339.249 293.728,171.482 298.719,171.482 287.49,159.084 276.261,171.482 
				281.252,171.482 281.252,339.249 			"/>
			<polygon style="fill:#F4B319;" points="206.394,339.249 206.394,248.413 211.384,248.413 200.156,236.014 188.927,248.413 
				193.917,248.413 193.917,339.249 			"/>
			<polyline style="fill:none;stroke:#222221;stroke-width:2.4953;stroke-miterlimit:10;" points="124.639,185.799 173.358,223.272 
				270.794,185.799 319.512,201.098 416.949,110.853 			"/>
			<circle style="fill:#222221;" cx="173.358" cy="223.272" r="4.658"/>
			<circle style="fill:#222221;" cx="270.794" cy="185.799" r="4.658"/>
			<circle style="fill:#222221;" cx="319.512" cy="200.913" r="4.658"/>
			<circle style="fill:#222221;" cx="416.949" cy="110.853" r="4.658"/>
			<g>
				<path style="fill:#222221;" d="M173.358,119.56c-4.801,0-8.707-3.906-8.707-8.707c0-4.801,3.906-8.707,8.707-8.707v-9.981
					c-10.304,0-18.688,8.384-18.688,18.688c0,10.305,8.384,18.688,18.688,18.688s18.688-8.384,18.688-18.688h-9.981
					C182.065,115.654,178.159,119.56,173.358,119.56z"/>
				<path style="fill:#EE881A;" d="M173.358,92.165L173.358,92.165l0,9.981h0c4.801,0,8.707,3.906,8.707,8.707h9.981
					C192.046,100.549,183.662,92.165,173.358,92.165z"/>
			</g>
			<g>
				<path style="fill:#F4B319;" d="M232.745,95.531l-5.698,8.183c2.255,1.575,3.737,4.186,3.737,7.139
					c0,2.004-0.687,3.846-1.829,5.319l7.885,6.097c2.451-3.162,3.926-7.116,3.926-11.416
					C240.765,104.515,237.585,98.912,232.745,95.531z"/>
				<path style="fill:#222221;" d="M222.076,119.56c-4.801,0-8.707-3.906-8.707-8.707c0-4.801,3.906-8.707,8.707-8.707c0,0,0,0,0,0
					v-9.981c0,0,0,0,0,0c-10.305,0-18.688,8.384-18.688,18.688c0,10.305,8.384,18.688,18.688,18.688
					c6.004,0,11.342-2.858,14.763-7.272l-7.885-6.097C227.36,118.229,224.873,119.56,222.076,119.56z"/>
				<path style="fill:#EE881A;" d="M227.047,103.714l5.698-8.183c-3.029-2.115-6.703-3.366-10.669-3.366v9.981
					C223.924,102.146,225.636,102.729,227.047,103.714z"/>
			</g>
			<g>
				<path style="fill:#222221;" d="M416.949,167.111v9.981c4.801,0,8.707,3.906,8.707,8.707c0,2.4-0.977,4.577-2.553,6.154
					l7.054,7.054c3.384-3.384,5.48-8.056,5.48-13.208C435.638,175.495,427.254,167.111,416.949,167.111z"/>
				<path style="fill:#EE881A;" d="M416.949,194.506c-2.4,0-4.577-0.977-6.154-2.553l-7.054,7.054
					c3.384,3.384,8.056,5.48,13.208,5.48c5.153,0,9.825-2.096,13.209-5.48l-7.054-7.054
					C421.527,193.529,419.35,194.506,416.949,194.506z"/>
				<path style="fill:#F4B319;" d="M408.242,185.799c0-4.801,3.906-8.707,8.707-8.707c0,0,0,0,0.001,0v-9.981c0,0,0,0-0.001,0
					c-10.304,0-18.688,8.384-18.688,18.688c0,5.152,2.096,9.824,5.48,13.208l7.054-7.054
					C409.219,190.376,408.242,188.199,408.242,185.799z"/>
			</g>
			<circle style="fill:#222221;" cx="319.512" cy="110.853" r="2.391"/>
			<path style="fill:#222221;" d="M370.622,213.471c0,1.321-1.071,2.391-2.391,2.391c-1.321,0-2.391-1.071-2.391-2.391
				c0-1.321,1.071-2.391,2.391-2.391C369.551,211.08,370.622,212.15,370.622,213.471z"/>
			<path style="fill:#222221;" d="M358.77,213.471c0,1.321-1.071,2.391-2.391,2.391s-2.391-1.071-2.391-2.391
				c0-1.321,1.071-2.391,2.391-2.391S358.77,212.15,358.77,213.471z"/>
			<path style="fill:#222221;" d="M321.904,122.269c0,1.321-1.071,2.391-2.391,2.391c-1.321,0-2.391-1.071-2.391-2.391
				c0-1.321,1.071-2.391,2.391-2.391C320.833,119.878,321.904,120.949,321.904,122.269z"/>
			<path style="fill:#222221;" d="M321.904,133.686c0,1.321-1.071,2.391-2.391,2.391c-1.321,0-2.391-1.071-2.391-2.391
				c0-1.321,1.071-2.391,2.391-2.391C320.833,131.294,321.904,132.365,321.904,133.686z"/>
			<polyline style="fill:none;stroke:#222221;stroke-width:1.2476;stroke-miterlimit:10;" points="416.949,200.913 416.949,213.471 
				368.231,213.471 			"/>
		</g>
	</g>
	<g>
		<g>
			<g>
				<g>
					<path style="fill:#222221;" d="M377.478,240.109c0,0-2.514,2.008-2.514,7.772c0,2.655-0.437,29.936-0.437,29.936H398.7v-26.089
						L377.478,240.109z"/>
					<polygon style="fill:#FFFFFF;" points="375.731,277.246 379.786,257.05 388.987,257.05 391.014,277.246 					"/>
					<path style="fill:#FFFFFF;stroke:#222221;stroke-width:0.9357;stroke-miterlimit:10;" d="M384.175,237.213
						c0,0-6.519,0.992-8.021,7.66c-1.502,6.668-2.123,15.485,6.386,16.745c7.214,1.068,10.729-6.518,10.729-6.518
						s2.795,0.612,3.522-2.449c0.727-3.061-1.446-3.427-1.446-3.427S397.938,236.395,384.175,237.213z"/>
					<path style="fill:#222221;" d="M377.073,242.044c0,0,3.953,10.508,15.578,8.128l2.429-0.855c0,0,1.415,0.111,1.675,2.411h1.937
						c0,0,0.641-17.484-10.344-17.758C377.364,233.695,377.073,242.044,377.073,242.044z"/>
				</g>
				<g>
					<path style="fill:#EE881A;stroke:#222221;stroke-width:0.9084;stroke-miterlimit:10;" d="M374.531,314.129
						c0,0-2.483,11.145-3.667,23.086c-1.185,11.941-4.803,119.924-4.803,119.924h10.657l11.339-98.183l13.771,98.183h9.461
						c0,0-2.05-116.363-9.418-143.01H374.531z"/>
					<polygon style="fill:#222221;" points="388.675,359.122 386.278,342.98 376.718,457.139 					"/>
					<polygon style="fill:#FFFFFF;stroke:#222221;stroke-width:0.9357;stroke-miterlimit:10;" points="366.958,457.139 
						366.51,461.583 358.264,466.028 366.062,466.028 371.52,466.028 374.444,466.028 375.848,457.139 					"/>
					<polygon style="fill:#FFFFFF;stroke:#222221;stroke-width:0.9357;stroke-miterlimit:10;" points="402.321,457.139 
						403.744,461.583 395.498,466.028 403.296,466.028 408.754,466.028 411.678,466.028 411.015,457.139 					"/>
					<path style="fill:#222221;" d="M375.38,463.169c-5.282,3.75-14.161,1.102-14.161,1.102l-13.443,5.967h19.302l2.25-1.462
						l0.557,1.462h5.495V463.169z"/>
					<path style="fill:#222221;" d="M411.982,463.173c-5.282,3.75-14.114,1.099-14.114,1.099l-13.443,5.967h19.302l2.25-1.462
						l0.557,1.462h6.157L411.982,463.173z"/>
				</g>
				<g>
					
						<rect x="357.413" y="325.007" transform="matrix(0.8471 -0.5315 0.5315 0.8471 -124.2371 247.0723)" style="fill:#FFFFFF;stroke:#222221;stroke-width:1.1086;stroke-miterlimit:10;" width="19.65" height="28.851"/>
					<path style="fill:#FFFFFF;stroke:#222221;stroke-width:1.1086;stroke-miterlimit:10;" d="M380.63,330.681
						c0,0-6.966,1.948-7.099,3.331c-0.133,1.383,3.556,0.583,3.556,0.583s-8,7.115-5.868,8.962c2.131,1.847,6.584,2.67,13.602-8.163
						L380.63,330.681z"/>
					<path style="fill:#FFFFFF;stroke:#222221;stroke-width:0.9357;stroke-miterlimit:10;" d="M335.962,251.926
						c0,0-0.317-5.861-1.426-7.762c-1.109-1.901-6.178-10.519-6.97-9.933c-0.792,0.586,1.743,7.715,1.743,7.715
						s-1.703-0.119-1.426,1.347c0,0-1.584-0.396-1.465,1.069c0,0-1.267,0.238-0.673,1.465c0,0-2.852,1.109,6.574,8.99
						L335.962,251.926z"/>
					<path style="fill:#F4B319;" d="M390.189,269.027c0,0-1.514,5.49-6.817,5.49c-5.302,0-5.973-5.584-5.973-5.584
						s-6.348-1.59-23.191,5.584c0,0-16.072-26.578-19.347-25.566c-3.275,1.012-4.514,4.51-4.046,6.694
						c0.468,2.183,16.453,34.216,20.82,34.06c4.367-0.156,19.533-3.336,19.533-3.336s-3.392,7.018,1.364,9.669l1.055,19.65h15.711
						c0,0-10.209,14.309-9.273,16.336c0.936,2.027,2.246,4.718,5.374,3.314c3.128-1.404,21.834-25.421,22.145-26.98
						C407.857,306.799,412.326,267.316,390.189,269.027z"/>
					<path style="fill:none;stroke:#222221;stroke-width:0.9357;stroke-miterlimit:10;" d="M384.15,322.924l11.543-15.813
						c0,0-0.312-10.605-1.092-17.467"/>
					<path style="fill:none;stroke:#222221;stroke-width:0.9357;stroke-miterlimit:10;" d="M375.576,268.356
						c0,0,0.332,7.798,7.766,7.798c7.434,0,8.84-7.603,8.84-7.603"/>
					<path style="fill:none;stroke:#222221;stroke-width:0.9357;stroke-miterlimit:10;" d="M371.676,284.498
						c0,0-4.835,9.045,0.857,11.541l1.055,19.65"/>
				</g>
			</g>
			<path style="fill:none;stroke:#222221;stroke-width:0.9107;stroke-miterlimit:10;" d="M372.69,315.376
				c0,0,10.176,1.404,16.609,0.312"/>
		</g>
		<g>
			<g>
				<path style="fill:#FFFFFF;stroke:#222221;stroke-width:0.9357;stroke-miterlimit:10;" d="M456.777,322.087
					c0,0,1.377,3.726,0.602,7.232c-0.775,3.506-3.972,8.819-6.101,8.363c-2.128-0.456,0.364-8.042,0.364-8.042
					s-1.242,0.072-0.728-2.05c0.514-2.122,0.988-4.127,0.988-4.127L456.777,322.087z"/>
				<polygon style="fill:#EE881A;stroke:#222221;stroke-width:0.9107;stroke-miterlimit:10;" points="454.81,322.203 
					446.74,463.058 459.45,463.058 469.353,353.152 481.673,463.058 492.902,463.058 484.831,322.087 				"/>
				<polygon style="fill:#222221;" points="448.488,463.058 434.146,470.124 460.743,470.124 459.067,463.058 				"/>
				<polygon style="fill:#222221;" points="482.908,463.288 468.463,470.354 494.624,470.354 492.937,463.288 				"/>
				<polygon style="fill:#222221;" points="469.32,348.741 468.149,342.98 466.689,341.265 459.45,463.058 				"/>
			</g>
			<g>
				
					<rect x="474.33" y="324.824" transform="matrix(0.1793 -0.9838 0.9838 0.1793 63.6095 754.7462)" style="fill:#FFFFFF;stroke:#222221;stroke-width:1.1086;stroke-miterlimit:10;" width="19.65" height="28.851"/>
				<polygon style="fill:#FFFFFF;stroke:#222221;stroke-width:0.9357;stroke-miterlimit:10;" points="461.698,284.574 
					465.753,257.05 474.954,257.05 476.982,284.574 				"/>
				<path style="fill:#FFFFFF;stroke:#222221;stroke-width:0.9357;stroke-miterlimit:10;" d="M482.724,322.441
					c0,0-1.439,3.703-0.721,7.221c0.717,3.518,3.827,8.883,5.962,8.462c2.135-0.421-0.232-8.046-0.232-8.046
					s1.241,0.092,0.762-2.038s-0.92-4.143-0.92-4.143L482.724,322.441z"/>
				<path style="fill:#F4B319;" d="M487.898,277.324c-4.679-5.458-11.93-6.512-11.93-6.512l-9.279,13.762l-2.963-13.762
					c-4.835,1.052-12.008,3.861-13.646,5.342c-1.638,1.482-8.188,18.637-8.655,24.485c-0.468,5.848,7.236,24.042,9.576,24.51
					c2.339,0.468,4.226-2.224,4.226-2.224h27.682c0,0,2.027,1.91,5.069,1.91c3.041,0,11.02-20.25,11.488-23.962
					C499.932,297.161,492.577,282.782,487.898,277.324z M453.589,312.335c0,0-2.339-8.889-2.807-9.825
					c-0.468-0.936,2.807-8.422,2.807-8.422V312.335z M482.908,311.478l-1.248-18.403c0,0,5.848,5.784,6.316,7.361
					C488.444,302.013,482.908,311.478,482.908,311.478z"/>
				<path style="fill:none;stroke:#222221;stroke-width:0.9402;stroke-miterlimit:10;" d="M453.589,289.644
					c0,0-0.709,24.738,1.637,33.387l0.892,0.066c8.358,0.622,16.754,0.558,25.102-0.191l1.59-0.143"/>
				<path style="fill:none;stroke:#222221;stroke-width:0.9357;stroke-miterlimit:10;" d="M482.81,323.155
					c-3.431-5.202,5.166-22.719,5.166-22.719l-6.316-7.361"/>
				<path style="fill:none;stroke:#222221;stroke-width:0.9357;stroke-miterlimit:10;" d="M466.689,322.924
					c-1.248-11.011,0-38.35,0-38.35l-2.963-13.762l-4.289,1.619l2.261,1.93l-0.864,4.835l5.855,5.379"/>
				<polyline style="fill:none;stroke:#222221;stroke-width:0.9357;stroke-miterlimit:10;" points="466.689,284.574 
					475.968,270.812 479.773,272.254 476.046,275.199 474.72,280.521 466.689,284.574 				"/>
			</g>
			<g>
				<path style="fill:#222221;" d="M466.211,247.488c-0.94,3.672-2.958,6.326-4.507,5.93c-1.549-0.397-2.042-3.695-1.102-7.366
					c0.94-3.672,2.958-6.327,4.507-5.93C466.658,240.519,467.151,243.817,466.211,247.488z"/>
				<path style="fill:#222221;" d="M482.606,256.877c-1.692,3.392-4.223,5.563-5.654,4.849c-1.431-0.714-1.219-4.042,0.473-7.433
					c1.692-3.392,4.223-5.563,5.654-4.849C484.509,250.158,484.298,253.486,482.606,256.877z"/>
				<path style="fill:#FFFFFF;stroke:#222221;stroke-width:0.9357;stroke-miterlimit:10;" d="M470.142,239.876
					c0,0-6.519,0.992-8.021,7.66c-1.502,6.668-4.595,16.217,6.028,17.769c9.538,1.393,11.088-7.543,11.088-7.543
					s2.795,0.612,3.522-2.449c0.727-3.061-1.446-3.427-1.446-3.427S483.905,239.058,470.142,239.876z"/>
				<path style="fill:#222221;" d="M461.698,240.862c0,0,2.651,6.901,8.967,7.837c6.316,0.936,8.188,0,8.188,0l-0.702,6.433h0.702
					l2.46-3.245l1.497,1.497l0.956-0.006c0,0,2.596-8.081-0.858-9.24c0,0-2.885-5.146-7.564-5.965
					c-4.679-0.819-7.486-2.105-7.486-2.105l0.117,1.637l-4.211-1.637l0.234,1.988h-3.164L461.698,240.862z"/>
			</g>
		</g>
		<g>
			<g>
				<g>
					<path style="fill:#FFFFFF;stroke:#222221;stroke-width:0.9357;stroke-miterlimit:10;" d="M139.032,354.294l-0.23-4.444
						l-2.381-87.522l-18.5,0.173l4.762,25.88c0,0-0.669,18.533,7.479,64.431l0.936,5.926h2.924h5.458h7.798L139.032,354.294z"/>
					<path style="fill:#FFFFFF;stroke:#222221;stroke-width:0.9357;stroke-miterlimit:10;" d="M102.497,349.85L102.497,349.85
						l13.356-84.948l-17.106-2.573l-1.608,26.163c-2.019,14.323-2.612,61.358-2.612,61.358l-0.663,8.889h2.924h5.458h7.798
						l-8.246-4.445L102.497,349.85z"/>
					<path style="fill:#222221;" d="M130.162,355.88c5.282,3.749,14.161,1.102,14.161,1.102l13.443,5.967h-19.302l-2.25-1.462
						l-0.557,1.462h-5.495V355.88z"/>
					<path style="fill:#222221;" d="M93.56,355.884c5.282,3.75,14.114,1.099,14.114,1.099l13.443,5.967h-19.302l-2.25-1.462
						l-0.557,1.462H92.85L93.56,355.884z"/>
					<path style="fill:#EE881A;stroke:#222221;stroke-width:0.9084;stroke-miterlimit:10;" d="M101.361,205.717h28.605
						c0,0,6.202,21.289,6.455,59.887c0,0-19.351,7.007-39.142,0.93C97.279,266.534,95.524,228.408,101.361,205.717z"/>
				</g>
				<g>
					<path style="fill:#222221;" d="M109.594,139.288c0,0-7.103,18.473,1.527,23.932h23.493c0,0-1.382-14.376-0.246-24.967
						l-23.247-2.325L109.594,139.288z"/>
					<polygon style="fill:#FFFFFF;" points="129.811,169.957 125.756,149.76 116.555,149.76 114.528,169.957 					"/>
					<path style="fill:#FFFFFF;stroke:#222221;stroke-width:0.9357;stroke-miterlimit:10;" d="M127.78,129.763
						c0,0,5.85,2.885,5.371,9.704c-0.612,8.713-3.943,16.113-11.047,14.463c-7.104-1.649-8.339-9.807-8.339-9.807
						s-2.85-0.249-2.632-3.388c0.219-3.138,2.402-2.84,2.402-2.84S114.887,124.878,127.78,129.763z"/>
					<path style="fill:#222221;" d="M113.761,138.064c0,0,1.624,1.473,5.25,0c0,0,1.404,1.802,3.743,1.568
						c2.339-0.234,9.004-3.704,9.004-3.704s-0.274,3.524,1.393,3.539c3.807,0.033,0.211-11.931-7.199-13.661
						c-7.41-1.73-14.197,0.624-16.359,13.483l1.849,0.578C111.443,139.866,111.924,137.431,113.761,138.064z"/>
				</g>
				<g>
					<path style="fill:#FFFFFF;stroke:#222221;stroke-width:1.1086;stroke-miterlimit:10;" d="M174.964,179.454
						c0,0,6.367,5.276,7.404,4.352c1.794-1.598-1.755-3.392-1.755-3.392s9.616,3.676,10.084,0.895
						c0.468-2.781-1.251-6.668-14.154-7.023L174.964,179.454z"/>
					
						<rect x="85.409" y="229.853" transform="matrix(0.3094 -0.9509 0.9509 0.3094 -166.5235 259.2635)" style="fill:#FFFFFF;stroke:#222221;stroke-width:1.1086;stroke-miterlimit:10;" width="19.65" height="28.851"/>
					<path style="fill:#FFFFFF;stroke:#222221;stroke-width:1.1086;stroke-miterlimit:10;" d="M99.276,228.525
						c0,0,1.999,6.952,0.892,7.791c-1.107,0.839-2.362-2.72-2.362-2.72s-1.856,10.544-4.547,9.7
						c-2.691-0.844-5.729-4.202-0.193-15.862L99.276,228.525z"/>
					<path style="fill:#F4B319;" d="M174.804,172.967c-3.275-1.012-23.471-5.739-23.471-5.739
						c-16.843-7.174-23.191-5.584-23.191-5.584s-0.67,5.584-5.973,5.584c-5.302,0-6.817-5.49-6.817-5.49
						c-13.916-1.076-17.316,14.126-17.846,25.954l-0.001-0.001c0,0-6.76,38.567-4.703,40.306c1.451,1.227,5.973,1.978,6.473,0.528
						c0.284-0.825,4.958-13.305,6.208-20.745c3.15,0.584,7.285,1.207,11.286,1.368l15.183-0.749l1.456-22.499
						c6.304-3.343,1.531-10.853,1.531-10.853s12.336,2.909,16.703,3.065c4.367,0.156,24.797,3.096,25.265,0.913
						C177.377,176.843,178.079,173.979,174.804,172.967z M116.721,209.077c0.004,0.006,0.007,0.01,0.01,0.015
						C116.728,209.087,116.724,209.082,116.721,209.077z"/>
					<path style="fill:none;stroke:#222221;stroke-width:0.9357;stroke-miterlimit:10;" d="M132.852,208.087
						c0,0-13.684,3.166-27.368-0.307"/>
					<path style="fill:none;stroke:#222221;stroke-width:0.9357;stroke-miterlimit:10;" d="M100.502,225.097
						c0,0,8.489-24.137,9.113-47.997"/>
					<path style="fill:none;stroke:#222221;stroke-width:0.9357;stroke-miterlimit:10;" d="M113.163,160.685
						c0,0-1.403,11.931,9.006,7.954c0,0,10.254,4.562,7.642-7.954"/>
					<path style="fill:none;stroke:#222221;stroke-width:0.9357;stroke-miterlimit:10;" d="M122.169,168.639
						c0,0,1.482,21.808,0,40.243"/>
				</g>
			</g>
			<g>
				<rect x="81.699" y="362.95" style="fill:#222221;" width="79.069" height="5.35"/>
				
					<line style="fill:none;stroke:#222221;stroke-width:1.2476;stroke-miterlimit:10;" x1="95.735" y1="365.625" x2="82.799" y2="470.795"/>
				
					<line style="fill:none;stroke:#222221;stroke-width:1.2476;stroke-miterlimit:10;" x1="136.439" y1="365.625" x2="123.503" y2="470.795"/>
				
					<line style="fill:none;stroke:#222221;stroke-width:1.2476;stroke-miterlimit:10;" x1="143.204" y1="365.625" x2="156.141" y2="470.795"/>
				
					<line style="fill:none;stroke:#222221;stroke-width:1.2476;stroke-miterlimit:10;" x1="103.334" y1="365.625" x2="116.271" y2="470.795"/>
				
					<line style="fill:none;stroke:#222221;stroke-width:1.2476;stroke-miterlimit:10;" x1="93.275" y1="385.624" x2="133.979" y2="385.624"/>
				
					<line style="fill:none;stroke:#222221;stroke-width:1.2476;stroke-miterlimit:10;" x1="90.702" y1="406.196" x2="131.406" y2="406.196"/>
				
					<line style="fill:none;stroke:#222221;stroke-width:1.2476;stroke-miterlimit:10;" x1="88.363" y1="426.768" x2="129.067" y2="426.768"/>
				
					<line style="fill:none;stroke:#222221;stroke-width:1.2476;stroke-miterlimit:10;" x1="85.442" y1="447.34" x2="126.146" y2="447.34"/>
				
					<line style="fill:none;stroke:#222221;stroke-width:1.2476;stroke-miterlimit:10;" x1="84.668" y1="455.601" x2="154.272" y2="455.601"/>
			</g>
		</g>
	</g>
	<g>
		<g>
			
				<line style="fill:none;stroke:#222221;stroke-width:1.2476;stroke-miterlimit:10;" x1="68.189" y1="470.795" x2="534.502" y2="470.795"/>
			
				<line style="fill:none;stroke:#222221;stroke-width:1.2476;stroke-miterlimit:10;" x1="540.35" y1="470.795" x2="555.79" y2="470.795"/>
			
				<line style="fill:none;stroke:#222221;stroke-width:1.2476;stroke-miterlimit:10;" x1="63.51" y1="470.795" x2="46.21" y2="470.795"/>
		</g>
		<circle style="fill:#222221;" cx="304.328" cy="426.676" r="43.448"/>
		<circle style="fill:#222221;" cx="445.785" cy="92.165" r="10.042"/>
		<path style="fill:#222221;" d="M88.166,163.22c0,2.964-2.403,5.367-5.367,5.367c-2.964,0-5.367-2.403-5.367-5.367
			c0-2.964,2.403-5.367,5.367-5.367C85.763,157.853,88.166,160.255,88.166,163.22z"/>
		<circle style="fill:#222221;" cx="254.869" cy="403.805" r="5.367"/>
		<path style="fill:#222221;" d="M531.862,409.157c-0.576,3.16-3.604,5.254-6.764,4.679c-3.16-0.576-5.254-3.604-4.679-6.764
			c0.576-3.16,3.604-5.254,6.764-4.679C530.343,402.969,532.437,405.997,531.862,409.157z"/>
		<path style="fill:#F4B319;" d="M488.263,189.964c0.273,2.269-1.346,4.329-3.615,4.601c-2.269,0.272-4.329-1.346-4.601-3.615
			s1.346-4.329,3.615-4.601C485.931,186.077,487.991,187.695,488.263,189.964z"/>
		
			<ellipse transform="matrix(0.7071 -0.7071 0.7071 0.7071 -106.8243 100.3024)" style="fill:#F4B319;" cx="67.664" cy="179.099" rx="7.614" ry="7.614"/>
		<g>
			
				<ellipse transform="matrix(0.7071 -0.7071 0.7071 0.7071 -163.1366 493.9526)" style="fill:#222221;" cx="514.685" cy="443.9" rx="26.895" ry="26.895"/>
			<g>
				<path style="fill:#FFFFFF;" d="M500.649,445.582c0-1.081,0-2.163,0-3.244c1.005-0.551,2.086-0.929,3.142-1.361
					c1.015-0.415,1.474-1.589,1.021-2.595c-0.375-0.833-0.728-1.676-1.1-2.511c-0.165-0.371-0.108-0.665,0.197-0.946
					c0.504-0.464,1.001-0.939,1.468-1.441c0.314-0.337,0.633-0.411,1.053-0.241c0.943,0.382,1.893,0.747,2.841,1.116
					c0.764,0.297,2.021-0.246,2.33-1.003c0.361-0.884,0.729-1.766,1.081-2.654c0.173-0.436,0.448-0.656,0.945-0.632
					c0.663,0.032,1.33,0.027,1.994,0.001c0.459-0.018,0.743,0.16,0.92,0.577c0.356,0.841,0.739,1.672,1.094,2.514
					c0.435,1.033,1.63,1.522,2.643,1.082c0.857-0.373,1.726-0.719,2.584-1.089c0.393-0.169,0.701-0.115,1.004,0.205
					c0.471,0.497,0.964,0.977,1.476,1.432c0.329,0.292,0.404,0.593,0.236,0.992c-0.378,0.9-0.739,1.807-1.111,2.709
					c-0.351,0.853,0.163,2.08,1.019,2.413c1.083,0.422,2.19,0.785,3.233,1.308c0,1.081,0,2.163,0,3.244
					c-1.085,0.577-2.244,0.984-3.373,1.458c-0.684,0.287-1.194,1.595-0.897,2.269c0.385,0.875,0.763,1.752,1.161,2.621
					c0.208,0.455,0.165,0.811-0.235,1.156c-0.487,0.42-0.945,0.877-1.382,1.35c-0.313,0.338-0.633,0.415-1.054,0.243
					c-0.884-0.361-1.778-0.701-2.665-1.055c-0.989-0.394-2.202,0.128-2.586,1.105c-0.319,0.812-0.668,1.612-0.98,2.427
					c-0.187,0.486-0.478,0.73-1.03,0.696c-0.642-0.04-1.289-0.029-1.932-0.003c-0.457,0.018-0.745-0.154-0.923-0.573
					c-0.389-0.918-0.793-1.83-1.193-2.743c-0.323-0.738-1.63-1.251-2.364-0.936c-0.897,0.384-1.802,0.753-2.696,1.145
					c-0.433,0.19-0.774,0.152-1.111-0.219c-0.447-0.491-0.924-0.958-1.423-1.397c-0.355-0.312-0.411-0.631-0.233-1.047
					c0.351-0.821,0.678-1.653,1.025-2.476c0.465-1.104-0.013-2.225-1.123-2.646C502.676,446.441,501.63,446.092,500.649,445.582z
					 M514.681,448.205c2.468,0.001,4.416-1.886,4.413-4.275c-0.004-2.463-1.914-4.341-4.414-4.339
					c-2.477,0.002-4.412,1.879-4.406,4.275C510.28,446.339,512.173,448.203,514.681,448.205z"/>
			</g>
			<polyline style="fill:none;stroke:#222221;stroke-width:1.2476;stroke-miterlimit:10;" points="483.766,248.923 514.685,248.923 
				514.685,422.137 			"/>
		</g>
		<g>
			<polyline style="fill:none;stroke:#222221;stroke-width:1.2476;stroke-miterlimit:10;" points="81.698,126.76 81.698,144.227 
				109.903,144.227 			"/>
			<g>
				
					<ellipse transform="matrix(0.9315 -0.3637 0.3637 0.9315 -32.1286 36.8216)" style="fill:#F4B319;" cx="81.699" cy="103.714" rx="28.204" ry="28.204"/>
				<g>
					<path style="fill:#FFFFFF;" d="M67.663,105.397c0-1.081,0-2.163,0-3.244c1.005-0.551,2.086-0.929,3.143-1.361
						c1.015-0.415,1.474-1.589,1.021-2.595c-0.375-0.833-0.728-1.676-1.1-2.511c-0.165-0.371-0.108-0.665,0.197-0.946
						c0.504-0.464,1.001-0.939,1.468-1.441c0.314-0.337,0.633-0.411,1.053-0.241c0.943,0.382,1.893,0.747,2.841,1.116
						c0.764,0.297,2.021-0.246,2.33-1.003c0.361-0.884,0.728-1.766,1.081-2.654c0.174-0.436,0.448-0.656,0.945-0.632
						c0.663,0.032,1.33,0.027,1.994,0.001c0.459-0.018,0.743,0.16,0.92,0.577c0.356,0.841,0.739,1.672,1.094,2.514
						c0.435,1.033,1.63,1.522,2.643,1.082c0.857-0.373,1.726-0.719,2.583-1.089c0.393-0.169,0.701-0.116,1.005,0.205
						c0.471,0.497,0.964,0.977,1.476,1.432c0.329,0.293,0.404,0.593,0.236,0.992c-0.378,0.9-0.739,1.807-1.111,2.709
						c-0.351,0.853,0.163,2.08,1.019,2.413c1.084,0.422,2.19,0.785,3.233,1.308c0,1.081,0,2.163,0,3.244
						c-1.085,0.577-2.244,0.984-3.373,1.458c-0.684,0.287-1.194,1.595-0.897,2.269c0.385,0.875,0.763,1.752,1.161,2.621
						c0.208,0.454,0.165,0.811-0.235,1.156c-0.487,0.42-0.945,0.877-1.382,1.35c-0.313,0.338-0.633,0.415-1.054,0.243
						c-0.885-0.361-1.778-0.701-2.665-1.055c-0.988-0.394-2.202,0.128-2.586,1.105c-0.319,0.812-0.668,1.612-0.98,2.427
						c-0.187,0.486-0.478,0.73-1.03,0.696c-0.642-0.04-1.289-0.029-1.932-0.003c-0.457,0.018-0.745-0.154-0.923-0.573
						c-0.389-0.918-0.793-1.83-1.193-2.743c-0.323-0.738-1.63-1.251-2.364-0.937c-0.897,0.384-1.802,0.753-2.696,1.145
						c-0.433,0.19-0.774,0.152-1.111-0.219c-0.447-0.491-0.924-0.958-1.423-1.397c-0.355-0.312-0.411-0.631-0.233-1.047
						c0.351-0.821,0.678-1.652,1.025-2.476c0.465-1.104-0.013-2.225-1.123-2.647C69.69,106.256,68.644,105.906,67.663,105.397z
						 M81.695,108.019c2.468,0.001,4.417-1.886,4.412-4.275c-0.004-2.463-1.914-4.341-4.414-4.339
						c-2.477,0.002-4.412,1.879-4.406,4.275C77.294,106.154,79.188,108.018,81.695,108.019z"/>
				</g>
			</g>
		</g>
		<g>
			
				<ellipse transform="matrix(0.7071 -0.7071 0.7071 0.7071 37.2255 382.0374)" style="fill:#222221;" cx="479.773" cy="146.084" rx="30.572" ry="30.572"/>
			<g>
				<g>
					<path style="fill:#F4B319;" d="M488.962,157.441c-1.591,1.552-3.886,2.513-6.883,2.884v4.456h-3.978v-4.336
						c-1.963-0.106-3.832-0.45-5.608-1.034c-1.778-0.583-3.209-1.299-4.297-2.148l2.188-4.854c1.008,0.743,2.188,1.367,3.541,1.87
						s2.745,0.822,4.177,0.955v-6.644c-1.882-0.45-3.475-0.955-4.774-1.511c-1.3-0.557-2.387-1.372-3.262-2.447
						c-0.875-1.074-1.313-2.5-1.313-4.277c0-2.201,0.802-4.091,2.408-5.669c1.603-1.577,3.918-2.539,6.941-2.884v-4.416h3.978v4.336
						c3.263,0.266,5.954,1.074,8.077,2.427l-1.99,4.893c-1.99-1.14-4.018-1.83-6.087-2.069v6.763
						c1.857,0.424,3.428,0.908,4.715,1.452c1.285,0.544,2.366,1.353,3.242,2.426c0.875,1.075,1.312,2.487,1.312,4.237
						C491.349,154.027,490.554,155.89,488.962,157.441z M475.915,141.668c0.503,0.425,1.233,0.782,2.187,1.074v-5.649
						c-1.008,0.239-1.75,0.617-2.227,1.134c-0.478,0.517-0.716,1.121-0.716,1.81C475.158,140.7,475.41,141.244,475.915,141.668z
						 M484.229,154.04c0.476-0.478,0.715-1.048,0.715-1.711c0-0.663-0.245-1.207-0.736-1.631c-0.491-0.424-1.2-0.796-2.129-1.114
						v5.49C483.035,154.863,483.751,154.517,484.229,154.04z"/>
				</g>
			</g>
		</g>
		<g>
			<circle style="fill:#F4B319;" cx="245.07" cy="441.92" r="28.204"/>
			<g>
				<path style="fill:#222221;" d="M253.931,446.871l3.616,3.369c-1.17,1.429-2.616,2.517-4.336,3.266
					c-1.72,0.749-3.646,1.123-5.776,1.123c-2.036,0-3.926-0.363-5.67-1.086c-1.743-0.726-3.224-1.757-4.44-3.092
					c-1.219-1.334-2.096-2.877-2.634-4.634h-3.967v-2.949h3.442c-0.024-0.211-0.036-0.526-0.036-0.949
					c0-0.42,0.011-0.737,0.036-0.949h-3.442v-2.949h3.967c0.539-1.754,1.416-3.3,2.634-4.634c1.216-1.334,2.697-2.363,4.44-3.089
					c1.744-0.726,3.635-1.089,5.67-1.089c2.13,0,4.056,0.374,5.776,1.123c1.72,0.749,3.166,1.826,4.336,3.232l-3.616,3.369
					c-1.709-1.917-3.78-2.877-6.215-2.877c-1.544,0-2.926,0.351-4.143,1.051c-1.217,0.703-2.153,1.674-2.809,2.914h8.883v2.949
					h-9.76c-0.024,0.211-0.036,0.529-0.036,0.949c0,0.423,0.011,0.737,0.036,0.949h9.76v2.949h-8.883
					c0.656,1.24,1.592,2.212,2.809,2.914c1.217,0.703,2.599,1.054,4.143,1.054C250.173,449.786,252.245,448.814,253.931,446.871z"/>
			</g>
		</g>
	</g>
</g>
</svg>
