<?xml version="1.0" encoding="utf-8"?>
<!-- Generator: Adobe Illustrator 27.5.0, SVG Export Plug-In . SVG Version: 6.00 Build 0)  -->
<svg version="1.1" xmlns="http://www.w3.org/2000/svg" xmlns:xlink="http://www.w3.org/1999/xlink" x="0px" y="0px"
	 viewBox="0 0 2475 1650" style="enable-background:new 0 0 2475 1650;" xml:space="preserve">
<g id="Background">
	<rect style="fill:#FFFFFF;" width="2475" height="1650"/>
</g>
<g id="Illustration">
	<g>
		<linearGradient id="SVGID_1_" gradientUnits="userSpaceOnUse" x1="87.4124" y1="784.4995" x2="2305.9939" y2="784.4995">
			<stop  offset="0" style="stop-color:#DAE3FE"/>
			<stop  offset="1" style="stop-color:#E9EFFD"/>
		</linearGradient>
		<path style="fill:url(#SVGID_1_);" d="M2220.024,816.008c-43.857-82.959-47.399-154.134-24.718-244.718
			c25.049-100.043,49.243-227.8-10.703-318.791c-52.826-80.184-135.848-137.032-224.801-157.961
			c-112.922-26.567-207.486,16.433-298.032,87.82c-124.287,97.989-339.173,177.919-492.313,134.567
			c-133.788-37.879-232.665-164.092-373.666-188.545c-97.24-16.864-242.211,9.995-273.493,128.032
			c-8.203,30.952-7.882,64.69-21.167,93.529c-30.743,66.736-108.632,60.379-166.95,66.405c-63.07,6.518-129.15,38.884-177.98,81.806
			c-32.461,28.533-58.685,67.244-66.593,111.525c-9.288,52.006,11.212,110.744,55.6,136.733
			c65.641,38.433,136.743,25.431,154.867,120.196c19.321,101.028,10.347,202.484,41.134,302.988
			c78.547,256.413,332.001,349.076,565.642,300.274c183.325-38.293,340.956-162.813,527.438-189.748
			c76.537-11.054,158.048-3.987,228.278,32.548c67.149,34.932,121.896,97.766,195.579,117.883
			c45.138,12.324,92.679,6.554,138.771-0.602c82.031-12.736,169.177-32.787,226.604-97.066
			c41.343-46.275,61.605-109.754,73.974-172.536C2324.953,1020.976,2282.377,933.953,2220.024,816.008z"/>
		<g>
			<path style="fill:#BDD0FB;" d="M1910.3,923.014c31.924-24.077,48.47-63.268,43.595-102.955
				c-5.204-42.369-0.712-90.187,15.006-138.16c41.248-125.898,144.182-205.19,229.911-177.103
				c85.729,28.087,121.788,152.917,80.54,278.815c-8.007,24.439-18.339,47.121-30.419,67.602
				c-18.318,31.057-20.624,69.007-5.587,101.778c14.284,31.128,17.327,67.512,5.823,102.626
				c-15.708,47.944-54.679,81.748-100.3,93.002c-27.023,6.667-50.545,23.044-65.91,46.251
				c-43.6,65.852-112.466,100.45-173.432,80.476c-78.135-25.599-113.699-131.138-79.432-235.726
				C1846.429,989.757,1875.688,949.119,1910.3,923.014z"/>
			<path style="fill:#91B3FA;" d="M1841.913,1419.348c2.012,0.458,4.198-0.252,5.536-1.997
				c66.14-86.199,129.923-244.267,171.783-361.691c45.278-127.01,75.391-235.163,75.69-236.241c0.804-2.9-0.894-5.903-3.793-6.706
				c-2.889-0.804-5.902,0.893-6.706,3.793c-1.191,4.293-120.519,431.171-245.618,594.212c-1.832,2.387-1.381,5.807,1.006,7.638
				C1840.453,1418.851,1841.171,1419.179,1841.913,1419.348z"/>
		</g>
		<g>
			<g>
				<g>
					<path style="fill:#91B3FA;" d="M1700.884,1462.843l582.354,0.001v-116.558l-582.354,0.001
						C1713.349,1346.286,1713.349,1462.843,1700.884,1462.843z"/>
					
						<linearGradient id="SVGID_00000002361995668253392000000009761787855285790129_" gradientUnits="userSpaceOnUse" x1="1683.1256" y1="1404.5642" x2="2330.9023" y2="1404.5642">
						<stop  offset="0" style="stop-color:#4042E2"/>
						<stop  offset="1" style="stop-color:#4F52FF"/>
					</linearGradient>
					<path style="fill:url(#SVGID_00000002361995668253392000000009761787855285790129_);" d="M2283.238,1433.676v-53.342
						c0-18.804-11.508-34.047-25.704-34.047H1703.34c-11.164,0-20.214-9.05-20.214-20.214c0-3.392,2.75-6.142,6.142-6.142h605.691
						c13.89,0,35.944,21.839,35.944,48.779v74.499c0,25.4-21.41,45.99-34.506,45.99h-603.942c-5.152,0-9.328-4.176-9.328-9.328
						c0-9.404,7.623-17.027,17.027-17.027h561.066C2273.379,1462.843,2283.238,1449.784,2283.238,1433.676z"/>
				</g>
				<path style="fill:#BDD0FB;" d="M2267.087,1372.419H1721.05c-1.225,0-2.218-0.992-2.218-2.218c0-1.226,0.993-2.218,2.218-2.218
					h546.036c1.225,0,2.218,0.992,2.218,2.218C2269.305,1371.427,2268.312,1372.419,2267.087,1372.419z"/>
				<path style="fill:#BDD0FB;" d="M2267.087,1389.721H1721.05c-1.225,0-2.218-0.992-2.218-2.218c0-1.226,0.993-2.218,2.218-2.218
					h546.036c1.225,0,2.218,0.992,2.218,2.218C2269.305,1388.729,2268.312,1389.721,2267.087,1389.721z"/>
				<path style="fill:#BDD0FB;" d="M2267.087,1407.021H1721.05c-1.225,0-2.218-0.992-2.218-2.218c0-1.226,0.993-2.218,2.218-2.218
					h546.036c1.225,0,2.218,0.992,2.218,2.218C2269.305,1406.029,2268.312,1407.021,2267.087,1407.021z"/>
				<path style="fill:#BDD0FB;" d="M2267.087,1424.323H1721.05c-1.225,0-2.218-0.992-2.218-2.218c0-1.226,0.993-2.218,2.218-2.218
					h546.036c1.225,0,2.218,0.992,2.218,2.218C2269.305,1423.331,2268.312,1424.323,2267.087,1424.323z"/>
				<path style="fill:#BDD0FB;" d="M2267.087,1441.623H1721.05c-1.225,0-2.218-0.992-2.218-2.218c0-1.226,0.993-2.218,2.218-2.218
					h546.036c1.225,0,2.218,0.992,2.218,2.218C2269.305,1440.631,2268.312,1441.623,2267.087,1441.623z"/>
			</g>
			<g>
				<path style="fill:#7D97F4;" d="M1778.501,1319.4h483.818c11.098,0,20.095-8.997,20.095-20.095v-86.297
					c0-11.098-8.997-20.095-20.095-20.095h-483.817c-11.098,0-20.095,8.997-20.095,20.095v86.297
					C1758.406,1310.403,1767.403,1319.4,1778.501,1319.4z"/>
				<path style="fill:#91B3FA;" d="M2168.876,1304.864h47.076c4,0,7.242-3.242,7.242-7.242v-82.929c0-4-3.242-7.242-7.242-7.242
					h-47.076c-4,0-7.242,3.242-7.242,7.242v82.929C2161.634,1301.621,2164.876,1304.864,2168.876,1304.864z"/>
				<path style="fill:#91B3FA;" d="M2133.151,1304.864h15.759c2.027,0,3.669-1.643,3.669-3.67v-90.074
					c0-2.027-1.643-3.67-3.669-3.67h-15.759c-2.027,0-3.67,1.643-3.67,3.67v90.074
					C2129.482,1303.221,2131.125,1304.864,2133.151,1304.864z"/>
			</g>
		</g>
		<g>
			<path style="fill:#91B3FA;" d="M1915.839,188.734l104.447,190.545c27.671,50.482,30.693,110.858,8.2,163.85L1893.478,861.2
				c-15.308,36.065-18.969,76.011-10.469,114.258l37.048,166.718c13.887,62.491-4.973,127.755-50.054,173.205l0,0
				c-71.547,72.133-187.454,74.388-261.751,5.091l-117.803-109.874c-55.227-51.509-74.278-131.062-48.375-202l85.428-233.957
				c10.915-29.891,14.065-62.063,9.155-93.503l-50.602-324.07c-11.666-74.71,22.555-149.138,86.861-188.918l79.118-48.942
				C1743.649,62.533,1864.057,94.267,1915.839,188.734z"/>
			<g>
				<path style="fill:#7D97F4;" d="M1723.07,1406.102c-43.173-259.908-32.491-529.445-15.926-709.791
					c9.912-107.929,22.566-192.613,31.437-244.648c5.903-34.638,10.596-57.587,13.493-70.74
					c6.284-28.538,8.028-29.934,10.671-32.047c4.145-3.316,10.189-2.641,13.5,1.499c2.672,3.339,2.754,7.915,0.513,11.3
					c-10.626,26.978-115.472,555.255-34.738,1041.278c0.87,5.234-2.668,10.179-7.9,11.049c-0.534,0.088-1.063,0.131-1.586,0.131
					C1727.921,1414.134,1723.851,1410.801,1723.07,1406.102z M1774.745,363.876c0.006-0.005,0.013-0.011,0.02-0.016
					C1774.759,363.865,1774.752,363.87,1774.745,363.876z M1774.779,363.849c0.001-0.001,0.002-0.003,0.003-0.003
					C1774.781,363.847,1774.78,363.847,1774.779,363.849z"/>
			</g>
		</g>
		<g>
			<g>
				
					<linearGradient id="SVGID_00000106850691706296726190000010727371190840322200_" gradientUnits="userSpaceOnUse" x1="1458.3676" y1="1101.7081" x2="1931.3651" y2="1101.7081">
					<stop  offset="0" style="stop-color:#4042E2"/>
					<stop  offset="1" style="stop-color:#4F52FF"/>
				</linearGradient>
				<path style="fill:url(#SVGID_00000106850691706296726190000010727371190840322200_);" d="M1473.383,709.42h457.982
					l-32.248,748.887c-0.859,19.954-17.286,35.689-37.259,35.689h-403.49L1473.383,709.42z"/>
				<polygon style="fill:#7D97F4;" points="1468.211,979.705 1919.726,979.705 1928.132,784.5 1471.946,784.5 				"/>
				<path style="fill:#7D97F4;" d="M1936.012,724.437h-496.414v-56.309h488.724c6.222,0,11.667,4.183,13.271,10.195l7.691,28.84
					C1951.608,715.882,1945.036,724.437,1936.012,724.437z"/>
				
					<linearGradient id="SVGID_00000039099234176957826450000010718845535959590020_" gradientUnits="userSpaceOnUse" x1="1555.9703" y1="882.1022" x2="1574.7399" y2="882.1022">
					<stop  offset="0" style="stop-color:#4042E2"/>
					<stop  offset="1" style="stop-color:#4F52FF"/>
				</linearGradient>
				
					<rect x="1555.97" y="784.5" style="fill:url(#SVGID_00000039099234176957826450000010718845535959590020_);" width="18.77" height="195.205"/>
				
					<linearGradient id="SVGID_00000009587467005215129710000001381009953902826900_" gradientUnits="userSpaceOnUse" x1="1698.6204" y1="882.1022" x2="1717.39" y2="882.1022">
					<stop  offset="0" style="stop-color:#4042E2"/>
					<stop  offset="1" style="stop-color:#4F52FF"/>
				</linearGradient>
				
					<rect x="1698.62" y="784.5" style="fill:url(#SVGID_00000009587467005215129710000001381009953902826900_);" width="18.77" height="195.205"/>
				
					<linearGradient id="SVGID_00000041980250993109421870000005847302718033451671_" gradientUnits="userSpaceOnUse" x1="1818.7468" y1="882.1022" x2="1848.7784" y2="882.1022">
					<stop  offset="0" style="stop-color:#4042E2"/>
					<stop  offset="1" style="stop-color:#4F52FF"/>
				</linearGradient>
				<polygon style="fill:url(#SVGID_00000041980250993109421870000005847302718033451671_);" points="1837.516,979.705 
					1818.747,979.705 1830.009,784.5 1848.778,784.5 				"/>
				<g>
					<path style="opacity:0.76;fill:#91B3FA;" d="M1632.499,1257.497h-62.962c-1.273,0-2.305-1.032-2.305-2.305V1068.35
						c0-1.273,1.032-2.305,2.305-2.305h62.962c1.273,0,2.305,1.032,2.305,2.305v186.842
						C1634.803,1256.465,1633.771,1257.497,1632.499,1257.497z"/>
				</g>
				<g>
					<path style="fill:#91B3FA;" d="M1793.918,1257.497h-62.962c-1.273,0-2.304-1.032-2.304-2.304V1068.35
						c0-1.273,1.032-2.304,2.304-2.304h62.962c1.273,0,2.305,1.032,2.305,2.305v186.842
						C1796.223,1256.465,1795.191,1257.497,1793.918,1257.497z"/>
				</g>
			</g>
			
				<linearGradient id="SVGID_00000074423760003152830770000009570753367313315221_" gradientUnits="userSpaceOnUse" x1="1395.9683" y1="44.6889" x2="763.6399" y2="1269.8237">
				<stop  offset="0" style="stop-color:#4042E2"/>
				<stop  offset="1" style="stop-color:#4F52FF"/>
			</linearGradient>
			<polygon style="fill:url(#SVGID_00000074423760003152830770000009570753367313315221_);" points="380.984,382.827 
				443.764,1493.996 1488.399,1493.996 1533.447,382.827 			"/>
			<path style="fill:#7D97F4;" d="M1537.415,405.35H375.479c-5.653,0-10.646-3.687-12.308-9.09l-7.091-23.046
				c-2.548-8.281,3.644-16.664,12.308-16.664H1540.96c7.892,0,13.928,7.035,12.728,14.836l-3.546,23.046
				C1549.176,400.713,1543.771,405.35,1537.415,405.35z"/>
			<polygon style="fill:#91B3FA;" points="1523.402,630.587 1529.794,472.922 386.074,472.922 394.982,630.587 			"/>
			
				<linearGradient id="SVGID_00000064346073667767338270000011743249302485106864_" gradientUnits="userSpaceOnUse" x1="442.4408" y1="1577.7463" x2="669.9523" y2="-1232.2244">
				<stop  offset="0" style="stop-color:#4042E2"/>
				<stop  offset="1" style="stop-color:#4F52FF"/>
			</linearGradient>
			
				<rect x="512.372" y="472.922" style="fill:url(#SVGID_00000064346073667767338270000011743249302485106864_);" width="26.278" height="157.666"/>
			
				<linearGradient id="SVGID_00000140015335695343696490000016979286637943748008_" gradientUnits="userSpaceOnUse" x1="621.4568" y1="1592.2402" x2="848.9682" y2="-1217.73">
				<stop  offset="0" style="stop-color:#4042E2"/>
				<stop  offset="1" style="stop-color:#4F52FF"/>
			</linearGradient>
			
				<rect x="692.562" y="472.922" style="fill:url(#SVGID_00000140015335695343696490000016979286637943748008_);" width="26.278" height="157.666"/>
			
				<linearGradient id="SVGID_00000122702090166206300120000015880768490808755900_" gradientUnits="userSpaceOnUse" x1="800.473" y1="1606.7345" x2="1027.9845" y2="-1203.2361">
				<stop  offset="0" style="stop-color:#4042E2"/>
				<stop  offset="1" style="stop-color:#4F52FF"/>
			</linearGradient>
			
				<rect x="872.751" y="472.922" style="fill:url(#SVGID_00000122702090166206300120000015880768490808755900_);" width="26.278" height="157.666"/>
			
				<linearGradient id="SVGID_00000172417142247342734470000006816697993768137877_" gradientUnits="userSpaceOnUse" x1="979.489" y1="1621.2284" x2="1207.0004" y2="-1188.7417">
				<stop  offset="0" style="stop-color:#4042E2"/>
				<stop  offset="1" style="stop-color:#4F52FF"/>
			</linearGradient>
			
				<rect x="1052.941" y="472.922" style="fill:url(#SVGID_00000172417142247342734470000006816697993768137877_);" width="26.278" height="157.666"/>
			
				<linearGradient id="SVGID_00000128446438713495386420000015208604646772064650_" gradientUnits="userSpaceOnUse" x1="1158.5051" y1="1635.7228" x2="1386.0166" y2="-1174.2478">
				<stop  offset="0" style="stop-color:#4042E2"/>
				<stop  offset="1" style="stop-color:#4F52FF"/>
			</linearGradient>
			
				<rect x="1233.131" y="472.922" style="fill:url(#SVGID_00000128446438713495386420000015208604646772064650_);" width="26.278" height="157.666"/>
			
				<linearGradient id="SVGID_00000137113405560058191680000013469950255825088929_" gradientUnits="userSpaceOnUse" x1="1337.5211" y1="1650.2168" x2="1565.0326" y2="-1159.7535">
				<stop  offset="0" style="stop-color:#4042E2"/>
				<stop  offset="1" style="stop-color:#4F52FF"/>
			</linearGradient>
			
				<rect x="1413.32" y="472.922" style="fill:url(#SVGID_00000137113405560058191680000013469950255825088929_);" width="26.278" height="157.666"/>
			<g>
				<rect x="523.634" y="694.405" style="fill:#91B3FA;" width="270.481" height="116.372"/>
				<rect x="533.652" y="705.666" style="fill:#BDD0FB;" width="250.445" height="97.603"/>
			</g>
			<g>
				<rect x="819.159" y="694.405" style="fill:#91B3FA;" width="270.481" height="116.372"/>
				<rect x="829.177" y="705.666" style="fill:#BDD0FB;" width="250.445" height="97.603"/>
			</g>
			<g>
				<rect x="1114.685" y="694.405" style="fill:#91B3FA;" width="270.481" height="116.372"/>
				<rect x="1124.703" y="705.666" style="fill:#BDD0FB;" width="250.445" height="97.603"/>
			</g>
			
				<linearGradient id="SVGID_00000145046729004082564360000006076881106275919796_" gradientUnits="userSpaceOnUse" x1="734.1031" y1="1070.8749" x2="1086.1033" y2="1870.875">
				<stop  offset="0" style="stop-color:#4042E2"/>
				<stop  offset="1" style="stop-color:#4F52FF"/>
			</linearGradient>
			
				<rect x="579.943" y="1081.061" style="fill:url(#SVGID_00000145046729004082564360000006076881106275919796_);" width="510.537" height="439.212"/>
			<path style="fill:#7D97F4;" d="M632.498,1520.274h-81.674c-6.724,0-12.175-5.451-12.175-12.175v-442.053h93.848V1520.274z"/>
			
				<linearGradient id="SVGID_00000147208210297751682610000009671081599366143640_" gradientUnits="userSpaceOnUse" x1="642.8831" y1="1031.1969" x2="1054.8842" y2="1753.1984">
				<stop  offset="0" style="stop-color:#09005D"/>
				<stop  offset="1" style="stop-color:#1A0F91"/>
			</linearGradient>
			
				<rect x="670.038" y="1216.204" style="fill:url(#SVGID_00000147208210297751682610000009671081599366143640_);" width="330.348" height="304.07"/>
			<path style="fill:#91B3FA;" d="M498.912,886.029l13.46,228.818h525.553v405.427h342.339c18.468,0,33.645-14.575,34.392-33.029
				l23.914-591.026c0.563-13.897-10.463-25.516-24.371-25.682l-890.349-10.642C509.531,859.724,498.071,871.733,498.912,886.029z"/>
			
				<linearGradient id="SVGID_00000080181264399403567590000002732011160113097645_" gradientUnits="userSpaceOnUse" x1="1128.9031" y1="910.973" x2="669.6994" y2="1029.3242">
				<stop  offset="0" style="stop-color:#4042E2"/>
				<stop  offset="1" style="stop-color:#4F52FF"/>
			</linearGradient>
			<polygon style="fill:url(#SVGID_00000080181264399403567590000002732011160113097645_);" points="507.956,1039.768 
				1090.48,1039.768 1090.48,953.427 502.877,953.427 			"/>
			<rect x="594.959" y="953.427" style="fill:#91B3FA;" width="22.524" height="86.341"/>
			<rect x="696.315" y="953.427" style="fill:#91B3FA;" width="22.524" height="86.341"/>
			<rect x="797.672" y="953.427" style="fill:#91B3FA;" width="22.524" height="86.341"/>
			<rect x="899.029" y="953.427" style="fill:#91B3FA;" width="22.524" height="86.341"/>
			<rect x="1000.386" y="953.427" style="fill:#91B3FA;" width="22.524" height="86.341"/>
		</g>
		<g>
			<g>
				<g>
					<path style="fill:#BDD0FB;" d="M456.705,1230.539c0.792-14.588-0.315-29.056-5.093-43.327
						c-12.04-35.956-45.699-59.704-73.1-83.595c-25.184-21.958-52.467-58.925-4.675-74.457
						c38.076-12.374,96.657,6.384,117.495,42.641c24.662,42.912,26.311,109.245,69.568,139.573
						c60.514,42.427,81.444,18.267,121.782,115.495c17.236,41.545,3.732,74.008-17.389,97.566
						c-33.337,37.183-86.283,49.714-132.739,31.388c-41.041-16.19-75.354-49.706-86.435-93.05
						C434.93,1318.997,454.332,1274.228,456.705,1230.539z"/>
					<path style="fill:#7D97F4;" d="M616.788,1532.344c-1.62,0-3.041-1.185-3.287-2.837
						c-33.829-227.22-96.411-344.956-142.953-403.716c-50.257-63.447-93.043-73.519-93.469-73.614
						c-1.791-0.396-2.927-2.168-2.535-3.96c0.393-1.791,2.153-2.935,3.951-2.541c1.815,0.392,45.03,10.371,96.689,75.252
						c47.255,59.351,110.752,178.242,144.9,407.6c0.27,1.817-0.984,3.509-2.802,3.78
						C617.116,1532.334,616.952,1532.344,616.788,1532.344z"/>
				</g>
				<path style="fill:#BDD0FB;" d="M377.448,1143.28c1.582-1.223,3.477-2.186,5.662-2.812c12.082-3.458,21.863,6.738,29.197,14.841
					c6.28,6.939,13.799,15.404,15.746,24.937c2.104,10.306-4.796,22.288-16.164,15.654c-12.921-7.541-32.468-19.24-38.595-33.795
					C370.248,1154.87,371.968,1147.516,377.448,1143.28z"/>
			</g>
			<g>
				<path style="fill:#91B3FA;" d="M360.48,1436.826c-28.853-18.04-21.116-69.479-29.113-104.679
					c-4.228-18.611-10.003-36.426-20.056-52.772c-9.995-16.252-25.982-31.683-25.636-52.15c0.7-41.236,43.412-40.323,75.011-22.608
					c36.668,20.557,63.92,67.701,88.97,102.317c15.101,20.868,33.233,41.176,45.919,63.563
					c21.016,37.085,23.437,67.88,12.345,93.958c-10.639,25.013-42.541,54.255-63.435,36.87
					C428.708,1488.198,404.918,1464.61,360.48,1436.826z"/>
				<path style="fill:#7D97F4;" d="M502.424,1548.86c-1.514,0-2.884-1.04-3.238-2.58c-0.462-2.004-47.599-201.704-170.355-326.393
					c-1.289-1.31-1.273-3.416,0.037-4.707c1.309-1.284,3.417-1.271,4.705,0.037c124.099,126.054,171.632,327.548,172.098,329.569
					c0.411,1.791-0.705,3.576-2.495,3.99C502.924,1548.832,502.672,1548.86,502.424,1548.86z"/>
			</g>
		</g>
		<g>
			<g>
				
					<linearGradient id="SVGID_00000155831020243286256480000001722162676503830186_" gradientUnits="userSpaceOnUse" x1="1819.8491" y1="857.8083" x2="1891.8103" y2="937.5913">
					<stop  offset="0" style="stop-color:#09005D"/>
					<stop  offset="1" style="stop-color:#1A0F91"/>
				</linearGradient>
				<path style="fill:url(#SVGID_00000155831020243286256480000001722162676503830186_);" d="M1830.339,903.794
					c0,0-6.481-24.398,28.014-28.464c34.495-4.067,44.09,55.302,16.743,63.324C1847.748,946.675,1830.339,903.794,1830.339,903.794z
					"/>
				
					<linearGradient id="SVGID_00000160175405134905227210000017260716151872718727_" gradientUnits="userSpaceOnUse" x1="1913.071" y1="1465.1177" x2="1924.9003" y2="826.3327">
					<stop  offset="0" style="stop-color:#09005D"/>
					<stop  offset="1" style="stop-color:#1A0F91"/>
				</linearGradient>
				<path style="fill:url(#SVGID_00000160175405134905227210000017260716151872718727_);" d="M2065.387,1032.837
					c-10.686-11.56-25.679-18.18-41.42-18.293l-206.379-1.462c-16.79-0.119-32.777,7.177-43.69,19.937
					c-10.912,12.76-15.639,29.685-12.917,46.253l41.324,251.487h259.809l18.26-255.195
					C2081.498,1059.863,2076.073,1044.396,2065.387,1032.837z"/>
				
					<linearGradient id="SVGID_00000091715320251470568330000004800019988954705064_" gradientUnits="userSpaceOnUse" x1="1785.4894" y1="1166.7749" x2="1873.4124" y2="1166.7749">
					<stop  offset="0" style="stop-color:#FF928E"/>
					<stop  offset="1" style="stop-color:#FEB3B1"/>
				</linearGradient>
				<polygon style="fill:url(#SVGID_00000091715320251470568330000004800019988954705064_);" points="1785.489,1155.167 
					1857.273,1152.136 1873.412,1181.414 1785.489,1174.76 				"/>
				
					<linearGradient id="SVGID_00000116931252957613778090000007042758294969490829_" gradientUnits="userSpaceOnUse" x1="2209.6379" y1="1598.4775" x2="2788.6965" y2="1925.5103">
					<stop  offset="0" style="stop-color:#09005D"/>
					<stop  offset="1" style="stop-color:#1A0F91"/>
				</linearGradient>
				
					<rect x="1832.068" y="1428.352" style="fill:url(#SVGID_00000116931252957613778090000007042758294969490829_);" width="184.094" height="17.744"/>
				<g>
					
						<linearGradient id="SVGID_00000036219352398058308110000008891363887604093854_" gradientUnits="userSpaceOnUse" x1="1628.715" y1="1741.2489" x2="1805.7328" y2="1486.2233">
						<stop  offset="0" style="stop-color:#09005D"/>
						<stop  offset="1" style="stop-color:#1A0F91"/>
					</linearGradient>
					<path style="fill:url(#SVGID_00000036219352398058308110000008891363887604093854_);" d="M1818.175,1341.849l13.153,212.992
						c0.087,1.421,1.132,2.154,2.391,2.154h8.675c1.324,0,2.982-0.475,2.982-1.973v-213.173H1818.175z"/>
					
						<linearGradient id="SVGID_00000130607088704507262470000011196716052328176055_" gradientUnits="userSpaceOnUse" x1="-1173.0532" y1="813.5354" x2="-593.9947" y2="1140.5681" gradientTransform="matrix(-1 0 0 1 1968 0)">
						<stop  offset="0" style="stop-color:#09005D"/>
						<stop  offset="1" style="stop-color:#1A0F91"/>
					</linearGradient>
					<path style="fill:url(#SVGID_00000130607088704507262470000011196716052328176055_);" d="M2035.539,1341.849l-13.153,212.992
						c-0.087,1.421-1.132,2.154-2.391,2.154h-8.675c-1.324,0-1.812-0.475-1.812-1.973v-213.173H2035.539z"/>
				</g>
				
					<linearGradient id="SVGID_00000041290866165872036850000004495731008356648070_" gradientUnits="userSpaceOnUse" x1="1931.3148" y1="1065.3864" x2="1929.3148" y2="1253.3861">
					<stop  offset="0" style="stop-color:#09005D"/>
					<stop  offset="1" style="stop-color:#1A0F91"/>
				</linearGradient>
				<path style="fill:url(#SVGID_00000041290866165872036850000004495731008356648070_);" d="M2087.138,1325.443
					c0,16.411-13.304,29.714-29.715,29.714h-257.746c-16.411,0-29.714-13.303-29.714-29.714v-0.457
					c0-16.411,13.304-29.714,29.714-29.714h257.746c16.411,0,29.715,13.304,29.715,29.714V1325.443z"/>
				<g>
					
						<linearGradient id="SVGID_00000043443780007469541670000017654663149292770228_" gradientUnits="userSpaceOnUse" x1="5416.0854" y1="1850.691" x2="5210.6387" y2="1967.9569" gradientTransform="matrix(-0.9155 0.4023 0.4023 0.9155 5781.251 -2516.4446)">
						<stop  offset="0" style="stop-color:#FF928E"/>
						<stop  offset="1" style="stop-color:#FEB3B1"/>
					</linearGradient>
					<path style="fill:url(#SVGID_00000043443780007469541670000017654663149292770228_);" d="M1672.47,1522.93
						c0.189-0.187,28.357-268.039,36.024-295.449c1.29-4.611,4.833-8.227,9.414-9.621l35.914-10.931l77.452,45.508l-83.13,14.061
						c26.696,42.804-29.254,148.441-47.788,186.16c-1.881,3.828-0.146,8.441,3.792,10.079l17.153,7.135
						c-10.696,28.026-27.435,50.361-50.003,67.206L1672.47,1522.93z"/>
					
						<linearGradient id="SVGID_00000007406686705659506880000006891394905326974376_" gradientUnits="userSpaceOnUse" x1="1438.2753" y1="2013.9902" x2="1391.2751" y2="2082.9905" gradientTransform="matrix(0.6441 -0.765 0.765 0.6441 -520.8878 2201.1702)">
						<stop  offset="0" style="stop-color:#09005D"/>
						<stop  offset="1" style="stop-color:#1A0F91"/>
					</linearGradient>
					<path style="fill:url(#SVGID_00000007406686705659506880000006891394905326974376_);" d="M1711.589,1466.22
						c0,0,8.562-0.873,14.035,4.689c2.619,2.661,2.9,6.855,0.996,10.067c-8.459,14.271-36.634,60.725-52.969,74.577
						c-1.339,1.136-3.417,0.386-3.76-1.336c-0.954-4.789-1.666-14.879,2.775-32.058l-0.1,2.22c-0.127,2.809,3.443,4.108,5.129,1.857
						C1687.146,1513.617,1705.924,1486.835,1711.589,1466.22z"/>
				</g>
				
					<linearGradient id="SVGID_00000056429616731192880950000009129480314478631319_" gradientUnits="userSpaceOnUse" x1="1951.0708" y1="1228.4854" x2="1841.0709" y2="1310.4855">
					<stop  offset="0" style="stop-color:#FF928E"/>
					<stop  offset="1" style="stop-color:#FEB3B1"/>
				</linearGradient>
				<path style="fill:url(#SVGID_00000056429616731192880950000009129480314478631319_);" d="M1725.101,1534.817
					c0.176-0.2,6.177-52.124,6.353-52.323c-13.07-112.599,3.706-217.024,9.49-244.893c0.974-4.688,4.262-8.537,8.738-10.239
					l35.087-13.349l82.729,63.633l-84.341-3.817c29.546,40.889-19.088,150.087-35.013,188.979c-1.616,3.947,0.428,8.431,4.469,9.798
					l17.598,5.952c-8.764,28.689-23.945,52.11-45.315,70.451L1725.101,1534.817z"/>
				
					<linearGradient id="SVGID_00000114767741338570507180000013745466423368786562_" gradientUnits="userSpaceOnUse" x1="1012.955" y1="2023.4735" x2="965.9548" y2="2092.4736" gradientTransform="matrix(0.5905 -0.807 0.807 0.5905 98.1311 2776.5874)">
					<stop  offset="0" style="stop-color:#09005D"/>
					<stop  offset="1" style="stop-color:#1A0F91"/>
				</linearGradient>
				<path style="fill:url(#SVGID_00000114767741338570507180000013745466423368786562_);" d="M1760.271,1475.577
					c0,0,8.483-1.453,14.322,3.724c2.794,2.477,3.359,6.642,1.679,9.976c-7.469,14.813-32.418,63.077-47.773,78.008
					c-1.259,1.224-3.383,0.617-3.842-1.077c-1.278-4.714-2.675-14.731,0.588-32.173l0.051,2.222
					c0.065,2.812,3.714,3.865,5.243,1.504C1739.109,1524.527,1756.021,1496.53,1760.271,1475.577z"/>
				
					<linearGradient id="SVGID_00000149357673081708853340000010302839522868250757_" gradientUnits="userSpaceOnUse" x1="1875.0438" y1="1243.6888" x2="1688.0667" y2="1581.6859">
					<stop  offset="0" style="stop-color:#FE7062"/>
					<stop  offset="1" style="stop-color:#FF928E"/>
				</linearGradient>
				<path style="fill:url(#SVGID_00000149357673081708853340000010302839522868250757_);" d="M2005.506,1276.739
					c-2.776-22.958-36.614-73.286-36.614-73.286s-131.245-4.269-146.572,1.679c-11.896,4.617-60.439,2.008-81.574,0.609
					c-0.804-0.053-1.53,0.48-1.72,1.262c-0.19,0.783,0.21,1.59,0.949,1.911c51.622,22.455,56.585,35.252,63.411,78.778
					c0,0,51.954,31.586,157.347,22.873C1996.149,1307.636,2008.282,1299.697,2005.506,1276.739z"/>
				
					<linearGradient id="SVGID_00000126298666614795543480000008405214199961882032_" gradientUnits="userSpaceOnUse" x1="1830.1216" y1="1231.4333" x2="2070.1218" y2="859.4325">
					<stop  offset="0" style="stop-color:#FE7062"/>
					<stop  offset="1" style="stop-color:#FF928E"/>
				</linearGradient>
				<path style="fill:url(#SVGID_00000126298666614795543480000008405214199961882032_);" d="M1877.383,1195.997
					c0,0-39.404-37.52-58.8-62.372c-10.484-13.434-13.777-31.118-8.928-47.454c8.855-29.834,24.593-60.734,26.028-65.544
					c2.2-7.372,46.382-7.065,46.382-7.065s86.941,56.426,121.1,152.007l-38.363,11.943c0,0-22.701-38.084-45.13-62.297
					c0,0,38.811,51.27,40.177,72.259L1877.383,1195.997z"/>
				
					<linearGradient id="SVGID_00000165212657934001426400000013393377627721179059_" gradientUnits="userSpaceOnUse" x1="1836.3792" y1="962.6509" x2="1871.7125" y2="1037.3176">
					<stop  offset="0" style="stop-color:#FF928E"/>
					<stop  offset="1" style="stop-color:#FEB3B1"/>
				</linearGradient>
				<path style="fill:url(#SVGID_00000165212657934001426400000013393377627721179059_);" d="M1830.339,979.429
					c0.461,1.532,11.993,39.761,12.895,40.555c0.902,0.794,25.29,2.105,36.769-5.74l-23.43-51.83L1830.339,979.429z"/>
				
					<linearGradient id="SVGID_00000014628860293630247410000004057976798921457042_" gradientUnits="userSpaceOnUse" x1="1691.1898" y1="3744.3113" x2="1696.5231" y2="3658.978" gradientTransform="matrix(0.723 -0.6909 0.6909 0.723 908.4841 2860.4795)">
					<stop  offset="0" style="stop-color:#FF928E"/>
					<stop  offset="1" style="stop-color:#FEB3B1"/>
				</linearGradient>
				<path style="fill:url(#SVGID_00000014628860293630247410000004057976798921457042_);" d="M1798.624,936.487
					c0,0-8.21,18.964,1.436,47.795c9.646,28.832,25.41,31.337,35.393,24.209c9.983-7.128,22.928-19.864,24.537-45.981
					C1861.6,936.393,1809.933,912.501,1798.624,936.487z"/>
				
					<linearGradient id="SVGID_00000119839466991328373420000013254428421932619671_" gradientUnits="userSpaceOnUse" x1="1963.3638" y1="793.2604" x2="1584.5458" y2="1213.2544">
					<stop  offset="0" style="stop-color:#09005D"/>
					<stop  offset="1" style="stop-color:#1A0F91"/>
				</linearGradient>
				<path style="fill:url(#SVGID_00000119839466991328373420000013254428421932619671_);" d="M1842.757,904.466
					c-9.398-5.172-19.208-6.606-28.298-5.275c-6.889,0.973-13.368,3.534-18.976,7.248c-5.71,3.738-10.262,8.654-13.643,14.314
					c-1.104,2.288-1.883,4.711-2.383,7.252c-1.878,9.548,0.662,19.433,6.901,26.901c4.668,5.587,9.377,10.21,9.377,10.21
					l0.813-5.871c0-7.349,5.784-15.292,12.953-17.571c7.17-2.279,14.743-0.486,20.197,4.661
					c7.068,6.682,10.931,15.645,10.931,15.645l2.342-0.692c0,0-0.186-11.42,7.06-8.757c7.221,2.689,10.175,17.771,10.175,17.771
					s15.356,7.042,16.79-13.494C1878.432,936.294,1869.388,919.062,1842.757,904.466z"/>
				
					<linearGradient id="SVGID_00000028315280410102171010000002833206792627100590_" gradientUnits="userSpaceOnUse" x1="1720.4353" y1="3746.1379" x2="1725.7686" y2="3660.8047" gradientTransform="matrix(0.723 -0.6909 0.6909 0.723 908.4841 2860.4795)">
					<stop  offset="0" style="stop-color:#FF928E"/>
					<stop  offset="1" style="stop-color:#FEB3B1"/>
				</linearGradient>
				<path style="fill:url(#SVGID_00000028315280410102171010000002833206792627100590_);" d="M1846.499,961.288
					c0,0-9.073-20.006,3.635-20.729c12.708-0.723,7.538,19.286,5.005,26.586L1846.499,961.288z"/>
				
					<linearGradient id="SVGID_00000176740042234684795370000006985486854410671273_" gradientUnits="userSpaceOnUse" x1="1967.9124" y1="797.5366" x2="1943.9122" y2="957.537">
					<stop  offset="0" style="stop-color:#FF928E"/>
					<stop  offset="1" style="stop-color:#FEB3B1"/>
				</linearGradient>
				<path style="fill:url(#SVGID_00000176740042234684795370000006985486854410671273_);" d="M1802.306,1210.803l29.608-32.214
					l34.194,9.208c0,0,39.865,6.177,62.681,0c22.816-6.176,22.816-6.176,22.816-6.176l51.56-16.052l8.098,22.885
					c2.056,5.81-0.01,12.261-5.034,15.831c-4.461,3.17-9.689,6.653-13.022,8.111c-6.79,2.971-156.413,0.939-156.413,0.939
					L1802.306,1210.803z"/>
				<g>
					
						<linearGradient id="SVGID_00000129180146757575335540000002125296512187735480_" gradientUnits="userSpaceOnUse" x1="1727.7329" y1="1152.1359" x2="1840.634" y2="1152.1359">
						<stop  offset="0" style="stop-color:#DAE3FE"/>
						<stop  offset="1" style="stop-color:#E9EFFD"/>
					</linearGradient>
					<path style="fill:url(#SVGID_00000129180146757575335540000002125296512187735480_);" d="M1840.384,1210.999l-56.76-125.669
						c-0.581-1.287-2.025-1.944-3.376-1.537l-50.511,15.198c-0.744,0.224-1.362,0.746-1.709,1.441
						c-0.346,0.696-0.39,1.504-0.119,2.233l43.027,116.097c0.441,1.189,1.622,1.936,2.885,1.826l64.244-5.626
						c0.909-0.079,1.723-0.595,2.184-1.382C1840.709,1212.793,1840.76,1211.831,1840.384,1210.999z"/>
					
						<linearGradient id="SVGID_00000140699607116909308060000006690146830146753948_" gradientUnits="userSpaceOnUse" x1="1736.0891" y1="1093.4916" x2="1768.7747" y2="1093.4916">
						<stop  offset="0" style="stop-color:#4042E2"/>
						<stop  offset="1" style="stop-color:#4F52FF"/>
					</linearGradient>
					<path style="fill:url(#SVGID_00000140699607116909308060000006690146830146753948_);" d="M1768.565,1089.725l-1.569-3.56
						c-0.519-1.177-1.859-1.751-3.07-1.316l-7.484,2.692c-0.323,0.117-0.685,0.006-0.889-0.27l-1.328-1.799
						c-1.026-1.389-2.876-1.887-4.461-1.202l-6.687,3.018c-1.36,0.588-1.947,1.928-1.947,3.408v2.163
						c0,0.341-0.514,0.642-0.84,0.743l-2.384,0.694c-0.66,0.205-1.275,0.678-1.567,1.304c-0.292,0.626-0.343,1.345-0.076,1.982
						l1.631,3.932c0.51,1.214,1.879,1.809,3.112,1.345l26.186-9.857c0.63-0.236,1.132-0.722,1.393-1.343
						C1768.845,1091.041,1768.837,1090.34,1768.565,1089.725z"/>
				</g>
				
					<linearGradient id="SVGID_00000053547144201950474680000007712066508394025612_" gradientUnits="userSpaceOnUse" x1="1737.9786" y1="1157.2249" x2="1757.6105" y2="1157.2249">
					<stop  offset="0" style="stop-color:#FF928E"/>
					<stop  offset="1" style="stop-color:#FEB3B1"/>
				</linearGradient>
				<path style="fill:url(#SVGID_00000053547144201950474680000007712066508394025612_);" d="M1738.049,1147.635
					c0,0,10.813-14.694,11.229-10.258s0,14.001,0,14.001s2.079,1.802,5.129,8.456c3.05,6.654,4.692,17.09,1.375,18.041
					C1752.466,1178.826,1736.802,1158.309,1738.049,1147.635z"/>
				
					<linearGradient id="SVGID_00000091734350359935280290000001564142734902474910_" gradientUnits="userSpaceOnUse" x1="1836.889" y1="1164.3857" x2="1850.9333" y2="1164.3857">
					<stop  offset="0" style="stop-color:#09005D"/>
					<stop  offset="1" style="stop-color:#1A0F91"/>
				</linearGradient>
				<path style="fill:url(#SVGID_00000091734350359935280290000001564142734902474910_);" d="M1850.58,1147.33
					c-0.322-0.419-0.821-0.665-1.349-0.665c-1.156,0-2.176,0.755-2.515,1.86l-9.827,32.057l5.142,1.525l8.846-33.302
					C1851.012,1148.294,1850.903,1147.748,1850.58,1147.33z"/>
				<path style="fill:#BDD0FB;" d="M1789.895,953.328c-0.159,0-0.318-0.069-0.428-0.201c-0.173-0.21-17.119-21.212,0.053-36.989
					c0.225-0.204,0.577-0.188,0.783,0.035c0.207,0.225,0.193,0.576-0.034,0.784c-16.406,15.073-0.114,35.263,0.053,35.464
					c0.195,0.236,0.161,0.587-0.076,0.782C1790.144,953.287,1790.02,953.328,1789.895,953.328z"/>
			</g>
			<g>
				<g>
					
						<linearGradient id="SVGID_00000055674904313139635160000003280484710417401015_" gradientUnits="userSpaceOnUse" x1="1009.1877" y1="1407.2805" x2="1477.1868" y2="1407.2805">
						<stop  offset="0" style="stop-color:#09005D"/>
						<stop  offset="1" style="stop-color:#1A0F91"/>
					</linearGradient>
					
						<rect x="1009.188" y="1386.209" style="fill:url(#SVGID_00000055674904313139635160000003280484710417401015_);" width="467.999" height="42.142"/>
					<g>
						
							<linearGradient id="SVGID_00000150800816890756116550000004281090633956602287_" gradientUnits="userSpaceOnUse" x1="999.1763" y1="1471.6027" x2="1041.1334" y2="1471.6027">
							<stop  offset="0" style="stop-color:#09005D"/>
							<stop  offset="1" style="stop-color:#1A0F91"/>
						</linearGradient>
						<path style="fill:url(#SVGID_00000150800816890756116550000004281090633956602287_);" d="M999.176,1381.774l16.535,167.51
							c0.699,7.084,3.593,12.148,6.942,12.148h6.622c3.748,0,6.851-6.305,7.084-14.398l4.775-165.261H999.176z"/>
						
							<linearGradient id="SVGID_00000135677125023060904990000002479586497341730712_" gradientUnits="userSpaceOnUse" x1="-1761.6257" y1="1471.6027" x2="-1719.6686" y2="1471.6027" gradientTransform="matrix(-1 0 0 1 -263.5833 0)">
							<stop  offset="0" style="stop-color:#09005D"/>
							<stop  offset="1" style="stop-color:#1A0F91"/>
						</linearGradient>
						<path style="fill:url(#SVGID_00000135677125023060904990000002479586497341730712_);" d="M1498.042,1381.774l-16.535,167.51
							c-0.699,7.084-3.593,12.148-6.942,12.148h-6.622c-3.748,0-6.85-6.305-7.084-14.398l-4.774-165.261H1498.042z"/>
					</g>
					
						<linearGradient id="SVGID_00000132055429048976222870000017620401321843629478_" gradientUnits="userSpaceOnUse" x1="1139.4183" y1="1210.5194" x2="1569.8965" y2="1742.993">
						<stop  offset="0" style="stop-color:#FF928E"/>
						<stop  offset="1" style="stop-color:#FEB3B1"/>
					</linearGradient>
					<path style="fill:url(#SVGID_00000132055429048976222870000017620401321843629478_);" d="M1541.416,1325.457
						c-5.551-5.522-13.221-8.601-21.05-8.559l-437.229,2.402c-12.33,0.068-23.725-6.684-29.558-17.547l-147.633-274.935
						c-9.61-17.897-30.717-26.28-49.99-19.856l-3.946,1.313c-11.057,3.686-20.073,11.827-24.861,22.453
						c-4.789,10.627-4.918,22.771-0.354,33.497l123.608,290.48c11.64,27.355,38.209,45.367,67.929,46.051l485.749,11.193
						c12.027,0.278,23.95-4.306,32.554-12.714c8.604-8.409,13.747-19.93,13.747-31.961v-20.962
						C1550.381,1338.484,1546.967,1330.978,1541.416,1325.457z"/>
				</g>
				<g>
					
						<linearGradient id="SVGID_00000015345979501090654650000000786286111813136010_" gradientUnits="userSpaceOnUse" x1="12.3255" y1="1343.611" x2="-12.2276" y2="1415.8259" gradientTransform="matrix(0.8649 -0.502 0.502 0.8649 625.0107 -123.4994)">
						<stop  offset="0" style="stop-color:#FF928E"/>
						<stop  offset="1" style="stop-color:#FEB3B1"/>
					</linearGradient>
					<path style="fill:url(#SVGID_00000015345979501090654650000000786286111813136010_);" d="M1345.532,1021.196l-3.097-5.037
						c-1.783-2.899-4.786-4.83-8.164-5.249l-32.962-4.086c0,0-1.462-3.701,4.594-8.084c6.056-4.383,2.478-11.518,2.478-11.518
						s-8.1,6.644-19.821,16.883c-6.704,5.856-9.248,13.733-10.201,19.407l-5.276,11.566c2.945,3.469,7.496,6.218,14.417,5.341
						l1.199-8.854C1308.519,1032.215,1327.376,1028.347,1345.532,1021.196z"/>
					
						<linearGradient id="SVGID_00000009577527907688570000000008188857289686922674_" gradientUnits="userSpaceOnUse" x1="1282.499" y1="900.5533" x2="1246.4991" y2="1021.5529">
						<stop  offset="0" style="stop-color:#E1473D"/>
						<stop  offset="1" style="stop-color:#E9605A"/>
					</linearGradient>
					<path style="fill:url(#SVGID_00000009577527907688570000000008188857289686922674_);" d="M1273.083,1034.23
						c-3.549,7.78-7.076,15.571-10.623,23.353c-4.561,10.007-8.37,22.792-15.705,31.149c-8.648,9.852-22.812,8.125-31.669-0.484
						c-9.711-9.438-20.083-18.123-30.125-27.214c-2.649-2.398-5.369-4.715-8.039-7.088l-0.758,61.11
						c24.476,11.154,51.429,30.021,79.468,20.434c7.722-2.64,15.459-7.553,19.846-14.599c2.628-4.221,4.87-10.069,5.377-15.043
						c0.001-0.01,6.749-66.194,6.749-66.194C1279.616,1040.666,1276.481,1038.234,1273.083,1034.23z"/>
				</g>
				<g>
					<g>
						
							<linearGradient id="SVGID_00000156547763148792618030000010747116116714637731_" gradientUnits="userSpaceOnUse" x1="2457.9739" y1="1071.0913" x2="2364.6409" y2="881.7582" gradientTransform="matrix(1 0 0 1 -1375.1613 0)">
							<stop  offset="0" style="stop-color:#4042E2"/>
							<stop  offset="1" style="stop-color:#4F52FF"/>
						</linearGradient>
						<path style="fill:url(#SVGID_00000156547763148792618030000010747116116714637731_);" d="M1303.458,1540.952
							c-24.242,0-34.968-2.08-39.763-3.976c0.932,3.981,4.478,7.124,8.958,7.124h85.76c2.888,0,4.711-2.765,4.021-5.267
							C1352.658,1539.619,1331.895,1540.952,1303.458,1540.952z"/>
						
							<linearGradient id="SVGID_00000139268916705810303040000000093798960348670860_" gradientUnits="userSpaceOnUse" x1="2715.0427" y1="1350.3942" x2="2688.0247" y2="1537.0642" gradientTransform="matrix(1 0 0 1 -1375.1613 0)">
							<stop  offset="0" style="stop-color:#09005D"/>
							<stop  offset="1" style="stop-color:#1A0F91"/>
						</linearGradient>
						<path style="fill:url(#SVGID_00000139268916705810303040000000093798960348670860_);" d="M1362.433,1538.833
							c-0.139-0.505-0.344-1.001-0.702-1.46c-6.532-8.34-19.656-21.439-37.506-21.188c-26.151,0.368-35.269,3.205-55.591,0.159
							l-4.794,15.891c-0.488,1.62-0.497,3.237-0.145,4.74c4.796,1.897,15.522,3.976,39.763,3.976
							C1331.895,1540.952,1352.658,1539.619,1362.433,1538.833z"/>
					</g>
					
						<linearGradient id="SVGID_00000140723778540842168260000017050921820037328017_" gradientUnits="userSpaceOnUse" x1="2643.7957" y1="1510.7388" x2="2670.5505" y2="1510.7388" gradientTransform="matrix(1 0 0 1 -1375.1613 0)">
						<stop  offset="0" style="stop-color:#FF928E"/>
						<stop  offset="1" style="stop-color:#FEB3B1"/>
					</linearGradient>
					<path style="fill:url(#SVGID_00000140723778540842168260000017050921820037328017_);" d="M1274.519,1499.221l-5.885,20.014
						c0,0,13.037,5.935,24.503,1.171l2.251-17.34L1274.519,1499.221z"/>
					<g>
						
							<linearGradient id="SVGID_00000073680445717641795270000008359172855743885473_" gradientUnits="userSpaceOnUse" x1="2581.8884" y1="1009.9992" x2="2488.5549" y2="820.6647" gradientTransform="matrix(1 0 0 1 -1375.1613 0)">
							<stop  offset="0" style="stop-color:#4042E2"/>
							<stop  offset="1" style="stop-color:#4F52FF"/>
						</linearGradient>
						<path style="fill:url(#SVGID_00000073680445717641795270000008359172855743885473_);" d="M1452.266,1528.348
							c-18.897,15.184-28.555,20.289-33.476,21.821c3.208,2.505,7.931,2.722,11.424-0.084l66.853-53.716
							c2.251-1.809,1.949-5.095-0.149-6.605C1489.788,1496.497,1474.433,1510.537,1452.266,1528.348z"/>
						
							<linearGradient id="SVGID_00000009569357142575733160000007436832859784320668_" gradientUnits="userSpaceOnUse" x1="2848.8679" y1="1369.7629" x2="2821.8499" y2="1556.4333" gradientTransform="matrix(1 0 0 1 -1375.1613 0)">
							<stop  offset="0" style="stop-color:#09005D"/>
							<stop  offset="1" style="stop-color:#1A0F91"/>
						</linearGradient>
						<path style="fill:url(#SVGID_00000009569357142575733160000007436832859784320668_);" d="M1496.918,1489.764
							c-0.423-0.304-0.892-0.562-1.457-0.693c-10.292-2.379-28.687-4.322-42.446,7.054c-20.156,16.666-25.495,24.578-43.236,34.943
							l6.169,15.332c0.629,1.562,1.63,2.823,2.842,3.769c4.921-1.532,14.578-6.637,33.476-21.821
							C1474.433,1510.537,1489.788,1496.497,1496.918,1489.764z"/>
					</g>
					
						<linearGradient id="SVGID_00000022553204247873137490000004439373732909439670_" gradientUnits="userSpaceOnUse" x1="2495.8523" y1="1390.0118" x2="2707.6499" y2="1390.0118" gradientTransform="matrix(1 0 0 1 -1375.1613 0)">
						<stop  offset="0" style="stop-color:#09005D"/>
						<stop  offset="1" style="stop-color:#1A0F91"/>
					</linearGradient>
					<path style="fill:url(#SVGID_00000022553204247873137490000004439373732909439670_);" d="M1148.632,1271.191
						c0,0,145.135,11.85,174.909,25.867c29.773,14.016-24.297,210.455-24.297,210.455s-8.105,3.901-26.141-1.706
						c0,0,18.495-144.965,4.732-176.399l-157.144-25.703L1148.632,1271.191z"/>
					
						<linearGradient id="SVGID_00000011746883597425852150000000784617608374630570_" gradientUnits="userSpaceOnUse" x1="6607.7671" y1="3527.4995" x2="6584.1484" y2="3515.0459" gradientTransform="matrix(1 0 0 1 -1375.1613 0)">
						<stop  offset="0" style="stop-color:#FF928E"/>
						<stop  offset="1" style="stop-color:#FEB3B1"/>
					</linearGradient>
					<path style="fill:url(#SVGID_00000011746883597425852150000000784617608374630570_);" d="M1395.359,1503.474
						c1.348,1.228,14.42,27.594,14.42,27.594s14.554-3.149,17.522-12.359l-13.095-23.797L1395.359,1503.474z"/>
					
						<linearGradient id="SVGID_00000010287818440404268120000007318254138642080946_" gradientUnits="userSpaceOnUse" x1="2688.2388" y1="1301.7689" x2="2455.7202" y2="1565.3992" gradientTransform="matrix(1 0 0 1 -1375.1613 0)">
						<stop  offset="0" style="stop-color:#09005D"/>
						<stop  offset="1" style="stop-color:#1A0F91"/>
					</linearGradient>
					<path style="fill:url(#SVGID_00000010287818440404268120000007318254138642080946_);" d="M1061.219,1269.978
						c0,0-4.73,11.38-4.536,26.504c0.267,20.915,17.081,37.887,37.972,38.93l171.574,7.824c3.623,0.165,6.689,2.673,7.597,6.185
						c4.032,15.595,23.739,63.485,120.072,159.046c2.563,2.542,6.555,2.975,9.608,1.047l13.713-8.662
						c1.439-0.909,1.899-2.796,1.039-4.266l-99.899-170.593c-5.247-8.659-13.682-14.914-23.491-17.422l-146.234-37.38
						L1061.219,1269.978z"/>
					
						<linearGradient id="SVGID_00000098918717812589703540000017522739530117752238_" gradientUnits="userSpaceOnUse" x1="2497.449" y1="1173.7574" x2="2289.0425" y2="1522.8386" gradientTransform="matrix(1 0 0 1 -1375.1613 0)">
						<stop  offset="0" style="stop-color:#FE7062"/>
						<stop  offset="1" style="stop-color:#FF928E"/>
					</linearGradient>
					<path style="fill:url(#SVGID_00000098918717812589703540000017522739530117752238_);" d="M1060.755,1269.475
						c0,0-1.701-85.039,15.299-165.069c6.278-29.553,22.615-56.012,46.347-74.709l7.939-6.255l39.763,16.154l20.434,35.308
						c11.25,22.498,8.487,71.36,0,95.039c-14.19,39.593-25.538,80.622-30.375,100.776
						C1160.163,1270.717,1094.305,1279.415,1060.755,1269.475z"/>
					
						<linearGradient id="SVGID_00000039093063242750020750000012488439674162788997_" gradientUnits="userSpaceOnUse" x1="1182.1914" y1="955.9433" x2="1132.8582" y2="1079.2764">
						<stop  offset="0" style="stop-color:#FF928E"/>
						<stop  offset="1" style="stop-color:#FEB3B1"/>
					</linearGradient>
					<path style="fill:url(#SVGID_00000039093063242750020750000012488439674162788997_);" d="M1157.678,960.068l-31.065,72.07
						c0,0,9.941,22.367,44.733,13.669l12.426-49.704L1157.678,960.068z"/>
					<g>
						
							<linearGradient id="SVGID_00000108272676407103520190000008614956894066548620_" gradientUnits="userSpaceOnUse" x1="1360.5851" y1="902.1713" x2="1260.5851" y2="940.1714">
							<stop  offset="0" style="stop-color:#FF928E"/>
							<stop  offset="1" style="stop-color:#FEB3B1"/>
						</linearGradient>
						<path style="fill:url(#SVGID_00000108272676407103520190000008614956894066548620_);" d="M1219.24,927.199
							c0.374,1.007,1.198,72.011,1.198,72.011l-40.553-0.392l-10.778-67.182C1169.107,931.637,1212.971,910.347,1219.24,927.199z"/>
						
							<linearGradient id="SVGID_00000031901562989622607680000007101167416274359431_" gradientUnits="userSpaceOnUse" x1="1529.6403" y1="3292.1682" x2="1626.9519" y2="3292.1682" gradientTransform="matrix(0.9372 -0.3487 0.3487 0.9372 -1426.38 -1572.7599)">
							<stop  offset="0" style="stop-color:#09005D"/>
							<stop  offset="1" style="stop-color:#1A0F91"/>
						</linearGradient>
						<path style="fill:url(#SVGID_00000031901562989622607680000007101167416274359431_);" d="M1181.001,944.555l2.905,35.81
							c0.037,0.459,0.133,0.9,0.293,1.332c0.98,2.645,5.018,11.495,13.821,6.812c7.988-4.25,15.342-8.009,21.087-7.526
							c2.58,0.217,4.569,2.352,4.599,4.941c0.073,6.451-0.031,20.992-2.049,33.61c-0.409,2.561-2.728,4.36-5.315,4.177
							c-7.795-0.553-24.201-2.178-37.093-6.577c-1.747-0.596-3.031-2.078-3.345-3.898c-1.528-8.868-6.276-35.804-8.759-43.106
							c-2.332-6.853-11.868-9.199-15.942-9.899c-1.336-0.229-2.508-0.989-3.265-2.113c-2.676-3.974-7.244-13.521,4.547-20.386
							c2.468-1.437,3.248-4.601,1.737-7.024c-3.009-4.824-5.526-12.633,3.335-19.151c9.006-6.625,17.604-2.919,22.559,0.532
							c2.003,1.395,4.67,1.098,6.412-0.613c0.992-0.974,2.42-1.532,4.449-0.805c2.734,0.98,5.702-0.733,6.394-3.553
							c1.329-5.418,5.061-11.721,15.186-12.16c17.966-0.778,24.078,17.996,21.939,30.234c-2.138,12.238-21.665,11.974-32.221,8.319
							c-8.026-2.779-16.252,3.73-19.734,7.01C1181.437,941.561,1180.879,943.045,1181.001,944.555z"/>
						
							<linearGradient id="SVGID_00000139276799528269935880000014152813063093514123_" gradientUnits="userSpaceOnUse" x1="1199.2622" y1="952.0205" x2="1174.5956" y2="964.0205">
							<stop  offset="0" style="stop-color:#FF928E"/>
							<stop  offset="1" style="stop-color:#FEB3B1"/>
						</linearGradient>
						<path style="fill:url(#SVGID_00000139276799528269935880000014152813063093514123_);" d="M1168.332,983.159
							c0,0,2.811-21.484-5.563-24.786c-8.373-3.303-18.662,1.576-13.153,15.508C1156.47,991.211,1168.332,983.159,1168.332,983.159z
							"/>
					</g>
					
						<linearGradient id="SVGID_00000137843214507302785250000006961638733654467754_" gradientUnits="userSpaceOnUse" x1="1170.7219" y1="1021.3" x2="1179.7219" y2="1226.3007">
						<stop  offset="0" style="stop-color:#FE7062"/>
						<stop  offset="1" style="stop-color:#FF928E"/>
					</linearGradient>
					<path style="fill:url(#SVGID_00000137843214507302785250000006961638733654467754_);" d="M1253.39,1201.173
						c-102.409,32.149-96.961-111.99-97.624-113.004c-40.597-62.038-63.394,20.635-59.46,32.29
						c36.008,130.365,126.782,123.91,162.153,98.302C1254.054,1211.909,1253.05,1205.879,1253.39,1201.173z"/>
					
						<linearGradient id="SVGID_00000177483999336233356770000004372095567735002549_" gradientUnits="userSpaceOnUse" x1="512.4802" y1="2063.6694" x2="689.4805" y2="1869.6688" gradientTransform="matrix(0.9551 0.2964 -0.2964 0.9551 -328.8554 -38.9192)">
						<stop  offset="0" style="stop-color:#E1473D"/>
						<stop  offset="1" style="stop-color:#E9605A"/>
					</linearGradient>
					<path style="fill:url(#SVGID_00000177483999336233356770000004372095567735002549_);" d="M1174.885,1178.939
						c-0.565-0.175-1.074-0.544-1.419-1.081c-15.516-24.18-19.895-57.779-20.836-81.708c-0.057-1.438,1.064-2.649,2.501-2.706
						c1.438-0.057,2.649,1.062,2.705,2.501c0.75,19.061,4.346,54.682,20.016,79.099c0.777,1.21,0.425,2.822-0.786,3.6
						C1176.392,1179.076,1175.595,1179.159,1174.885,1178.939z"/>
					
						<linearGradient id="SVGID_00000024700441568926622450000015757873189808737671_" gradientUnits="userSpaceOnUse" x1="513.6959" y1="2064.7781" x2="690.6965" y2="1870.7772" gradientTransform="matrix(0.9551 0.2964 -0.2964 0.9551 -328.8554 -38.9192)">
						<stop  offset="0" style="stop-color:#E1473D"/>
						<stop  offset="1" style="stop-color:#E9605A"/>
					</linearGradient>
					<path style="fill:url(#SVGID_00000024700441568926622450000015757873189808737671_);" d="M1146.287,1211.694
						c-0.321-0.099-0.627-0.263-0.9-0.491c-23.405-19.613-41.039-50.434-52.411-91.604c-0.383-1.387,0.431-2.822,1.818-3.206
						c1.387-0.382,2.822,0.432,3.205,1.818c11.085,40.133,28.155,70.077,50.736,88.998c1.103,0.924,1.247,2.568,0.323,3.671
						C1148.363,1211.708,1147.26,1211.995,1146.287,1211.694z"/>
					
						<linearGradient id="SVGID_00000013888408800984706230000014013505246765584059_" gradientUnits="userSpaceOnUse" x1="1333.5559" y1="1049.0205" x2="1309.556" y2="1115.0203">
						<stop  offset="0" style="stop-color:#FF928E"/>
						<stop  offset="1" style="stop-color:#FEB3B1"/>
					</linearGradient>
					<path style="fill:url(#SVGID_00000013888408800984706230000014013505246765584059_);" d="M1313.673,1171.077
						c0,0-1.663,2.656-13.653,11.946c-11.99,9.29-24.062,14.651-14.896,1.883c9.167-12.768,4.706-19.357-5.755-5.603
						c-10.46,13.754-17.939,19.067-17.939,19.067c-2.753,1.054-5.431,1.983-8.042,2.803c-0.34,4.706,0.664,10.736,5.069,17.588
						c4.149-1.372,6.493-2.385,6.493-2.385s31.715-5.771,38.508-19.276C1310.251,1183.596,1313.673,1171.077,1313.673,1171.077z"/>
				</g>
			</g>
			<g>
				
					<linearGradient id="SVGID_00000093879964893030508780000012203463308222809225_" gradientUnits="userSpaceOnUse" x1="1439.8065" y1="809.8494" x2="1434.9865" y2="1303.8796">
					<stop  offset="0" style="stop-color:#DAE3FE"/>
					<stop  offset="1" style="stop-color:#E9EFFD"/>
				</linearGradient>
				<path style="fill:url(#SVGID_00000093879964893030508780000012203463308222809225_);" d="M1261.054,961.885
					c-3.833-1.315-3.282-6.917,0.737-7.438c18.313-2.375,45.155-9.545,53.945-31.032c13.792-33.714-14.777-163.703,116.467-186.961
					c121.065-21.454,188.494,16.857,186.961,128.727C1617.679,973.618,1443.414,1024.461,1261.054,961.885z"/>
				
					<linearGradient id="SVGID_00000072980045394440280310000017888917844881376421_" gradientUnits="userSpaceOnUse" x1="1468.2502" y1="777.4779" x2="1466.4622" y2="960.7382">
					<stop  offset="0" style="stop-color:#09005D"/>
					<stop  offset="1" style="stop-color:#1A0F91"/>
				</linearGradient>
				<path style="fill:url(#SVGID_00000072980045394440280310000017888917844881376421_);" d="M1470.678,960.779
					c-0.293,0-0.586-0.115-0.804-0.344c-0.298-0.314-7.277-7.774-6.386-16.767c0.235-2.372,0.993-4.614,2.268-6.717
					c-0.484-0.342-0.943-0.706-1.378-1.09c-3.022-2.679-7.144-8.684-0.797-18.801c3.547-5.658,9.092-10.462,17.448-15.115
					c2.975-1.657,6.29-3.219,9.799-4.869c7.723-3.637,16.033-7.549,21.879-13.154c-9.905-5.378-21.764-8.138-33.74-7.783
					c-2.931,0.084-6.491,0.403-10.402,0.983c3.775,8.391,4.527,18.247,1.597,27.404c-4.203,13.146-15.027,21.225-28.951,21.613
					c-6.982,0.16-16.883-1.622-21.876-7.378c-2.688-3.1-3.666-6.923-2.906-11.363c0.468-2.738,1.397-5.279,2.703-7.633
					c-2.718-1.98-4.883-4.67-6.341-7.943c-0.25-0.561-0.475-1.133-0.679-1.713c-12.6-2.491-23.267-12.381-26.847-26.111
					c-4.068-15.6,0.889-30.268,13.261-39.233c0.538-0.39,1.083-0.765,1.636-1.124c1.26-4.845,3.239-9.314,4.798-12.117
					c9.58-17.213,26.899-29.497,46.33-32.859c22.634-3.903,53.833,1.596,66.85,17.603c6.636,8.157,8.13,18.123,4.46,29.659
					c0.004,0.048,0.009,0.097,0.012,0.147c1.92-1.167,4.134-1.642,6.5-1.378c4.265,0.479,8.811,3.381,11.583,7.39
					c4.393,6.353,4.757,13.808,1.025,20.993c-1.801,3.466-4.401,6.528-7.46,8.967c3.397,1.735,7.029,2.967,10.521,3.981
					c0.516,0.149,0.85,0.645,0.795,1.18c-0.055,0.533-0.485,0.951-1.019,0.992c-6.759,0.513-12.094,4.139-14.271,9.699
					c-1.49,3.806-1.341,7.923,0.31,11.735c4.994-1.358,13.539-2.22,17.721,0.892c1.875,1.395,2.685,3.466,2.343,5.989
					c-0.466,3.433-2.391,4.733-3.925,5.218c-4.676,1.482-11.831-2.645-14.188-5.185c-1.225-1.319-2.253-2.742-3.075-4.232
					c-0.215,0.082-0.414,0.162-0.591,0.243c-0.683,0.31-1.391,0.676-2.1,1.089c1.532,2.4,2.632,5.001,2.856,7.609
					c0.289,3.353-0.905,6.245-3.549,8.59c-3.401,3.015-5.985,1.75-6.938,1.068c-2.673-1.915-3.702-6.719-2.203-10.284
					c1.277-3.03,3.93-5.655,6.692-7.601c-2.429-3.173-5.578-5.909-8.093-7.466c-0.264-0.162-0.532-0.325-0.8-0.485
					c-6.105,6.058-14.851,10.176-22.974,13.999c-3.474,1.635-6.755,3.18-9.665,4.8c-8.016,4.466-13.307,9.028-16.648,14.356
					c-4.119,6.565-3.984,12.086,0.39,15.961c0.367,0.327,0.757,0.637,1.167,0.929c1.409-1.802,3.226-3.49,5.446-5.055
					c10.986-7.735,19.54-6.561,22.835-2.201c2.411,3.19,1.544,7.481-2.105,10.436c-4.964,4.016-17.435,4.248-25.55-0.182
					c-1.097,1.817-1.748,3.741-1.948,5.759c-0.791,7.993,5.722,14.95,5.786,15.019c0.422,0.444,0.404,1.146-0.04,1.568
					C1471.227,960.677,1470.952,960.779,1470.678,960.779z M1468.923,936.301c7.271,3.869,18.531,3.799,22.875,0.284
					c2.71-2.194,3.406-5.157,1.731-7.373c-2.231-2.954-9.344-4.685-19.788,2.677
					C1471.784,933.266,1470.176,934.742,1468.923,936.301z M1421.02,900.978c-1.164,2.11-1.99,4.373-2.404,6.795
					c-0.642,3.756,0.165,6.964,2.396,9.537c4.485,5.17,13.64,6.765,20.139,6.613c12.94-0.36,22.997-7.863,26.901-20.07
					c2.826-8.833,2.02-18.353-1.755-26.369c-0.718,0.121-1.446,0.251-2.181,0.39c-5.672,14.066-20.162,28.921-37.384,25.241
					C1424.668,902.672,1422.755,901.952,1421.02,900.978z M1524.915,894.852c-2.542,1.796-4.867,4.137-5.922,6.645
					c-1.094,2.599-0.39,6.301,1.449,7.62c1.436,1.022,3.062,0.063,4.174-0.925c2.091-1.856,3.038-4.124,2.813-6.743
					C1527.24,899.26,1526.281,896.992,1524.915,894.852z M1422.184,899.082c1.525,0.847,3.203,1.475,5.01,1.861
					c15.476,3.318,28.622-9.691,34.299-22.548C1446.743,881.512,1429.682,888.014,1422.184,899.082z M1531.634,891.666
					c0.698,1.176,1.545,2.309,2.539,3.379c2.058,2.214,8.284,5.72,11.895,4.579c1.36-0.431,2.144-1.544,2.396-3.403
					c0.234-1.722-0.247-3.002-1.469-3.912C1543.731,889.879,1536.228,890.522,1531.634,891.666z M1414.64,890.507
					c0.057,0.139,0.117,0.277,0.179,0.414c1.267,2.846,3.136,5.196,5.48,6.942c2.252-3.359,5.293-6.312,8.845-8.889
					c-1.897,0.602-3.809,1.053-5.731,1.356C1420.447,890.795,1417.502,890.843,1414.64,890.507z M1516.302,883.431
					c0.138,0.084,0.275,0.167,0.413,0.253c2.584,1.599,6.082,4.564,8.794,8.144c0.849-0.503,1.681-0.934,2.457-1.285
					c0.166-0.076,0.346-0.152,0.54-0.227c-1.786-4.302-1.943-8.987-0.284-13.221c1.976-5.049,6.182-8.703,11.639-10.293
					c-2.575-0.895-5.15-1.956-7.599-3.292c-2.966,1.984-6.257,3.407-9.612,4.1c-0.001,0.048-0.003,0.093-0.005,0.141
					C1522.381,874.171,1519.965,879.246,1516.302,883.431z M1413.821,888.159c3.005,0.464,6.111,0.477,9.247-0.022
					c11.648-1.83,22.906-9.513,33.532-22.869c-0.103-0.08-0.207-0.158-0.31-0.236c-7.153-5.406-16.307-7.633-24.476-5.976
					c-6.801,1.384-12.226,5.292-15.688,11.304c-1.058,1.839-1.851,3.808-2.373,5.833c1.173,0.884,2.476,1.568,3.914,2.008
					c0.586,0.18,0.916,0.799,0.736,1.386c-0.178,0.583-0.796,0.91-1.384,0.736c-1.356-0.416-2.604-1.016-3.749-1.774
					C1412.777,881.784,1412.953,885.086,1413.821,888.159z M1399.458,826.835c-11.332,8.432-15.834,22.081-12.045,36.606
					c3.25,12.468,12.71,21.563,24,24.246c-0.799-3.455-0.831-7.124-0.117-10.678c-6.641-6.056-9.06-17.764-8.49-25.854
					c0.087-1.245,0.529-3.676,1.278-6.825c-1.621-1.17-2.873-2.705-3.744-4.601C1398.634,836.019,1398.636,831.386,1399.458,826.835
					z M1480.974,873.891c11.882,0,23.548,2.937,33.336,8.38c3.479-3.864,5.794-8.952,6.105-14.755
					c-0.727,0.078-1.452-0.32-2.176-0.32c-0.081,0-0.163,0-0.245,0c-7.836,0-15.458-2.456-22.791-8.216
					c-5.986,3.301-12.598,5.554-19.541,5.664c-2.891,0.059-5.764-0.159-8.583-0.824c-0.115,2.781-0.496,5.62-1.159,8.371
					c0.575,0.895,1.112,1.841,1.608,2.783c4.236-0.639,8.126-0.974,11.375-1.067
					C1479.594,873.888,1480.285,873.891,1480.974,873.891z M1458.304,866.687c-4.734,5.941-9.603,10.798-14.59,14.556
					c6.173-2.426,12.698-4.185,18.799-5.374c0.397-1.085,0.738-2.162,1.019-3.219
					C1462.036,870.467,1460.289,868.461,1458.304,866.687z M1406.072,845.495c-0.606,2.601-0.971,4.644-1.055,5.816
					c-0.509,7.228,1.456,17.538,6.898,23.241c0.558-1.835,1.322-3.617,2.291-5.296c3.787-6.58,9.723-10.86,17.166-12.375
					c8.79-1.785,18.603,0.6,26.255,6.381c0.113,0.085,0.225,0.169,0.337,0.256c0.548-0.717,1.096-1.451,1.641-2.201
					c-9.084-4.256-17.222-12.182-23.174-22.936c-0.519-0.938-1.114-2.081-1.731-3.392c-6.226,7.856-15.837,13.542-25.08,11.655
					C1408.323,846.379,1407.14,845.995,1406.072,845.495z M1459.671,864.935c1.661,1.473,3.169,3.097,4.513,4.845
					c0.404-2.136,0.635-4.289,0.699-6.437c-1.075-0.323-2.14-0.697-3.196-1.12C1461.017,863.15,1460.346,864.054,1459.671,864.935z
					 M1497.217,858.255c6.768,5.162,13.626,7.631,21.005,7.616c0.747-0.006,1.497-0.054,2.246-0.145
					c-0.001-3.552-0.379-7.026-0.746-10.403c-0.21-1.938-0.424-3.899-0.568-5.889c-1.304-3.151-2.313-7.137-2.343-11.027
					C1512.031,846.154,1505.246,853.334,1497.217,858.255z M1521.855,854.415c0.024,0.223,0.048,0.444,0.072,0.667
					c0.361,3.318,0.731,6.728,0.757,10.256c2.579-0.589,5.11-1.646,7.45-3.08C1526.99,860.259,1524.133,857.724,1521.855,854.415z
					 M1467.115,861.658c2.794,0.697,5.63,1.016,8.514,0.992c6.271-0.1,12.262-1.854,17.735-4.733
					c-3.916-3.353-7.747-7.531-11.479-12.524c-1.943-2.599-4.262-5.699-6.105-9.097c-2.485,6.574-5.77,12.998-9.244,18.658
					C1466.896,857.168,1467.092,859.407,1467.115,861.658z M1463.009,860.358c0.623,0.24,1.249,0.461,1.878,0.663
					c-0.027-1.053-0.093-2.105-0.199-3.151C1464.129,858.723,1463.569,859.552,1463.009,860.358z M1521.337,848.896
					c0.2,0.468,0.406,0.914,0.614,1.33c2.422,4.828,6.069,8.192,10.206,10.661c3.128-2.328,5.793-5.359,7.596-8.827
					c3.335-6.42,3.022-13.063-0.88-18.71c-2.386-3.45-6.407-6.041-10.006-6.446c-2.349-0.267-4.413,0.349-6.149,1.826
					c-0.007,3.041-0.409,6.193-0.962,9.342C1521.099,841.808,1521.094,845.348,1521.337,848.896z M1436.206,832.949
					c0.767,1.729,1.527,3.206,2.165,4.358c5.802,10.484,13.735,18.16,22.546,22.174c0.014-0.02,0.027-0.039,0.04-0.059
					c1.088-1.553,2.179-3.199,3.254-4.923c-2.096-11.512-8.876-22.128-19.107-28.711c-1.401-0.901-2.844-1.711-4.318-2.424
					c-0.426,1.521-1.001,3.069-1.729,4.629C1438.267,829.683,1437.307,831.349,1436.206,832.949z M1476.818,833.398
					c1.85,3.99,4.61,7.681,6.843,10.665c3.866,5.175,7.765,9.409,11.725,12.727c10.989-6.483,19.659-17.445,23.929-28.249
					c0.379-0.96,0.722-1.908,1.03-2.844c-0.643-6.084-3.474-10.895-10.255-14.231c-9.024-4.43-22.271-3.775-29.84,2.636
					C1480.386,820.198,1479.042,826.83,1476.818,833.398z M1441.3,821.151c1.712,0.806,3.384,1.731,5.004,2.77
					c10.045,6.463,16.925,16.628,19.586,27.805c3.291-5.61,6.332-11.855,8.551-18.162c-2.134-4.915-2.927-10.304-0.11-15.626
					c0.958-1.811,2.206-3.401,3.673-4.776c-0.103-1.923-0.369-3.782-0.822-5.554c-1.668-6.537-5.782-11.471-12.227-14.664
					c-9.681-4.8-22.289-0.858-28.705,8.967c-0.286,0.438-0.555,0.879-0.806,1.324C1440.589,807.722,1442.609,814.101,1441.3,821.151
					z M1406.615,843.279c1.011,0.531,2.163,0.929,3.448,1.191c8.604,1.765,17.889-4.157,23.604-11.814
					c-1.485-3.567-2.895-7.986-3.431-12.745c-5.197-0.951-10.519-0.899-15.63,0.165
					C1411.087,827.883,1408.266,836.794,1406.615,843.279z M1402.062,825.063c-1.159,4.817-1.481,9.879,0.293,13.739
					c0.568,1.237,1.343,2.287,2.319,3.149c1.561-6.043,4.027-13.934,7.163-21.197
					C1408.416,821.727,1405.123,823.163,1402.062,825.063z M1520.358,831.791c-1.263,2.573-1.512,5.727-1.184,8.831
					c0.093-0.968,0.223-1.947,0.396-2.935C1519.932,835.635,1520.206,833.669,1520.358,831.791z M1432.529,820.399
					c0.487,3.667,1.511,7.113,2.647,10.063c0.706-1.118,1.334-2.259,1.87-3.409c0.535-1.144,1.186-2.744,1.68-4.618
					C1436.705,821.589,1434.63,820.911,1432.529,820.399z M1478.031,816.358c-0.66,0.808-1.243,1.681-1.74,2.621
					c-1.948,3.678-1.853,7.497-0.732,11.166C1476.976,825.446,1477.879,820.772,1478.031,816.358z M1466.212,779.663
					c-5.048,0-9.972,0.401-14.542,1.191c-18.777,3.247-35.513,15.115-44.77,31.75c-1.255,2.257-2.807,5.647-3.988,9.401
					c3.189-1.729,6.586-3.011,10.085-3.84c3.676-7.899,8.15-14.649,13.095-16.821c2.604-1.146,5.143-0.962,7.569,0.544
					c0.231-0.398,0.474-0.793,0.732-1.187c7.02-10.746,20.877-15.026,31.546-9.743c7.052,3.494,11.557,8.911,13.391,16.102
					c0.362,1.419,0.612,2.885,0.761,4.393c8.413-6.035,21.755-6.507,30.976-1.973c5.925,2.913,9.076,6.901,10.551,11.456
					c1.831-8.956,0.094-16.758-5.198-23.265C1506.514,785.488,1485.472,779.663,1466.212,779.663z M1432.298,818.071
					c2.34,0.524,4.65,1.243,6.902,2.16c0.768-4.64,0.22-10.328-4.79-14.946C1432.532,809.489,1432.025,813.882,1432.298,818.071z
					 M1422.818,817.023c2.415,0,4.834,0.201,7.233,0.607c-0.221-4.505,0.422-9.234,2.573-13.774
					c-1.836-1.185-3.689-1.343-5.64-0.483c-4.04,1.776-7.898,7.397-11.222,14.233
					C1418.088,817.218,1420.45,817.023,1422.818,817.023z"/>
			</g>
		</g>
		<g>
			<g>
				<path style="fill:#FFFFFF;" d="M844.365,306.167c0,0-0.852,0.195-1.813,0.874c-0.903,0.692-1.84,1.939-3.043,2.862
					c-2.248,1.699-4.231,3.721-4.231,3.721l-0.028,0.023c-0.736,0.604-1.24,1.253-0.613,2.073c0.627,0.82,1.565,0.793,2.326,0.218
					c0,0,2.184-1.829,4.46-3.545c0.563-0.435,1.08-0.927,1.608-1.336c0.578-0.442,0.818-0.686,1.171-0.987
					c0.319-0.273,0.542-0.524,0.838-0.706c0.255-0.177,0.395-0.284,0.395-0.284l0.64-0.449c0.768-0.531,1.126-1.375,0.541-2.199
					c-0.585-0.824-1.521-0.865-2.24-0.274L844.365,306.167z"/>
				<path style="fill:#FFFFFF;" d="M825.356,319.201l-9.539,6.15c-0.796,0.513-0.98,1.619-0.411,2.47s1.674,1.126,2.47,0.612
					l9.547-6.138c0.8-0.514,0.986-1.624,0.416-2.479c-0.57-0.855-1.681-1.131-2.481-0.617L825.356,319.201z"/>
				<path style="fill:#FFFFFF;" d="M806.49,332.19l-10.218,4.753c-0.832,0.441-1.188,1.224-0.688,2.106
					c0.501,0.882,1.536,1.095,2.368,0.654l10.027-5.391c0.836-0.442,1.272-0.975,0.77-1.861c-0.502-0.886-1.375-0.261-2.256-0.261
					H806.49z"/>
				<path style="fill:#FFFFFF;" d="M786.506,343.747l-10.803,3.124c-0.865,0.362-1.363,0.752-0.939,1.661
					c0.424,0.909,1.398,1.034,2.263,0.672l10.491-4.551c0.868-0.362,1.494-0.195,1.068-1.109c-0.425-0.913-1.22,0.202-2.077,0.202
					H786.506z"/>
				<path style="fill:#FFFFFF;" d="M764.217,345.965l-10.671,5.049c-0.895,0.27-1.196,2.109-0.86,3.041
					c0.337,0.932,1.409,1.902,2.304,1.632l11.016-3.091c0.898-0.27,1.07-2.868,0.734-3.805c-0.337-0.936-1.696-2.826-2.521-2.826
					H764.217z"/>
				<path style="fill:#FFFFFF;" d="M742.642,357.055l-11.254,1.21c-0.919,0.164-1.422,0.654-1.189,1.602
					c0.234,0.949,1.194,1.379,2.113,1.215l11.375-2.126c0.923-0.164,1.384-0.294,1.15-1.247c-0.234-0.953-1.415-0.655-2.193-0.655
					H742.642z"/>
				<path style="fill:#FFFFFF;" d="M718.969,357.055l-11.028,1.375c-0.934,0.043-1.293,1.27-1.178,2.224
					c0.115,0.955,1.116,1.903,2.05,1.861l11.716-0.42c0.938-0.042,1.033-1.637,0.919-2.595c-0.114-0.958-0.11-0.227-2.476-2.445
					H718.969z"/>
				<path style="fill:#FFFFFF;" d="M697.212,359.273l-11.792-1.264c-0.933-0.086-1.734,0.503-1.746,1.447
					c-0.012,0.944,0.719,1.725,1.653,1.811l11.713,1.037c0.937,0.087,1.772-0.41,1.785-1.358c0.013-0.948-0.709-1.673-1.608-1.673
					H697.212z"/>
				<path style="fill:#FFFFFF;" d="M674.05,356.989l-11.893-1.736c-0.925-0.121-1.802,0.428-1.849,1.361
					c-0.047,0.932,0.619,1.731,1.544,1.852l11.691,1.504c0.928,0.122,1.887-0.334,1.935-1.27c0.048-0.936-0.932-2.119-1.426-1.712
					L674.05,356.989z"/>
				<path style="fill:#FFFFFF;" d="M650.634,354.837l-11.77-3.055c-0.913-0.177-1.798,0.014-1.901,0.93
					c-0.103,0.916,0.522,1.597,1.434,1.774l11.628,2.152c0.916,0.178,1.86,0.342,1.965-0.577c0.105-0.919-0.609-1.223-1.352-1.223
					H650.634z"/>
				<path style="fill:#FFFFFF;" d="M627.333,348.183l-11.49-3.304c-0.891-0.262-1.773,0.266-1.963,1.153
					c-0.19,0.887,0.378,1.831,1.268,2.094l11.473,3.369c0.894,0.265,1.786-0.286,1.978-1.176c0.192-0.89-0.374-2.135-1.26-2.135
					H627.333z"/>
				<path style="fill:#FFFFFF;" d="M604.785,341.529c0,0-2.755-1.579-5.509-2.817c-2.617-1.362-5.235-2.895-5.235-2.895
					l-0.107-0.141c-0.827-0.431-1.791-0.166-2.151,0.643c-0.361,0.809,0.017,1.792,0.844,2.223c0,0,2.758,1.426,5.517,2.863
					c2.753,1.241,5.505,2.477,5.505,2.477c0.851,0.385,1.796,0.358,2.111-0.479c0.314-0.837-0.133-1.875-0.97-1.875H604.785z"/>
				<path style="fill:#FFFFFF;" d="M583.331,329.148c0,0-0.106-0.566-0.968-1.326c-0.424-0.381-0.727-0.851-1.177-1.335
					c-0.478-0.48-0.87-1.007-1.38-1.519c-0.949-1.109-1.911-2.19-2.519-3.098c-0.651-0.881-1.054-1.472-1.054-1.472l-0.075-0.123
					c-0.556-0.753-1.568-0.953-2.269-0.445c-0.701,0.508-0.817,1.526-0.261,2.28c0,0,0.479,0.649,1.194,1.624
					c0.681,1.006,1.779,2.175,2.829,3.394c0.573,0.576,1.146,1.152,1.684,1.692c0.538,0.565,1.041,0.975,1.472,1.362
					c0.861,0.761,1.436,1.269,1.436,1.269c0.703,0.623,1.257,0.646,1.818-0.021c0.561-0.668-0.729-1.449-0.729-2.277V329.148z"/>
				<path style="fill:#FFFFFF;" d="M570.023,310.591c0,0,0.749-1.052,0.567-2.164c-0.115-0.574,0.27-1.337,0.236-1.97
					c-0.024-0.321,0.169-0.73,0.145-1.067c-0.012-0.112,0.081-0.503,0.071-0.421l0.081-0.573c0.023-0.358,0.049-0.773,0.092-1.087
					c0.053-0.29,0.118-0.58,0.169-0.856c0.078-0.55,0.313-1.127,0.425-1.59c0.344-0.922,0.602-1.533,0.602-1.533l0.033-0.075
					c0.337-0.805-0.055-1.787-0.876-2.193c-0.816-0.403-1.748-0.086-2.09,0.708c0,0-0.309,0.718-0.718,1.827
					c-0.153,0.595-0.399,1.204-0.53,2.015c-0.066,0.401-0.134,0.815-0.203,1.235c-0.049,0.402-0.044,0.744-0.069,1.122l-0.027,0.553
					c0.007,0.452,0.026,0.47,0.039,0.724c0.029,0.396,0.058,0.786,0.086,1.163c0.048,0.765,0.114,1.459,0.222,1.995
					c0.181,1.113,0.301,1.855,0.301,1.855c0.147,0.902,0.108,1.88,0.988,1.801c0.88-0.079,0.458-0.761,0.458-1.467V310.591z"/>
				<path style="fill:#FFFFFF;" d="M579.511,291.621c0,0,1.947-2.091,4.18-3.833c2.322-1.396,4.502-2.965,4.502-2.965l0.072-0.173
					c0.73-0.439,0.775-1.374,0.284-2.152c-0.49-0.778-0.51-1.885-2.341-0.542l-0.009-0.011c0,0-2.431,1.433-4.972,2.965
					c-2.237,1.742-4.419,3.434-4.419,3.434c-0.675,0.525-0.446,1.865,0.126,2.594c0.571,0.728,1.909,1.233,2.569,0.69
					L579.511,291.621z"/>
				<path style="fill:#FFFFFF;" d="M598.209,279.425c0,0,0.755,0.545,1.822,0.356c0.52-0.069,1.207,0.075,1.814,0.069
					c0.623-0.041,1.299,0.083,1.963,0.039c0.663-0.059,1.353,0.145,1.983,0.159c0.638,0.017,1.226,0.115,1.703,0.261
					c0.973,0.214,1.623,0.377,1.623,0.377l0.294,0.075c0.861,0.189,1.656-0.352,1.775-1.214c0.119-0.857-0.475-1.703-1.329-1.897
					c0,0-0.803-0.181-2.008-0.456c-0.607-0.171-1.301-0.241-2.041-0.267c-0.741-0.024-1.535-0.148-2.322-0.087
					c-0.787,0.054-1.573,0.107-2.311,0.157c-0.764,0.03-1.316,0.203-1.871,0.277c-1.067,0.187-1.778,0.312-1.778,0.312
					c-0.851,0.146-1.414,0.306-1.204,1.184c0.211,0.878,1.058,0.654,1.878,0.654H598.209z"/>
				<path style="fill:#FFFFFF;" d="M614.383,287.338c0,0,2.158,0.508,2.771,1.48c0.153,0.243,1.194,0.436,1.369,0.715
					c0.179,0.28,0.691,0.515,0.832,0.807c0.257,0.578,0.75,1.176,1.023,1.792c0.212,0.678,0.534,1.348,0.733,1.983
					c0.229,0.626,0.608,1.212,0.72,1.736c0.216,1.05,0.615,1.716,0.615,1.716l0.045,0.147c0.183,0.87,0.787,1.515,1.632,1.4
					c0.846-0.114,1.276-0.893,1.097-1.763c0,0-0.213-0.768-0.449-1.931c-0.123-0.581-0.258-1.258-0.513-1.977
					c-0.226-0.721-0.481-1.487-0.722-2.256c-0.322-0.776-0.696-1.554-1.026-2.28c-0.319-0.769-0.684-1.323-0.993-1.801
					c-0.611-0.973-1.02-1.621-1.02-1.621c-0.484-0.77-3.211-0.903-3.933-0.47c-0.722,0.432-2.182,1.512-2.182,2.317V287.338z"/>
				<path style="fill:#FFFFFF;" d="M621.037,309.083c0,0,0.323,2.924-0.002,5.849c-0.521,2.794-0.717,5.588-0.717,5.588l0.142,0.108
					c-0.157,0.841,0.481,1.706,1.324,1.931c0.843,0.225,1.694-0.274,1.851-1.115c0,0,0.571-2.958,1.123-5.916
					c0.329-2.924,0.668-5.847,0.668-5.847c0.097-0.859-1.163-1.69-2.019-1.856c-0.856-0.165-2.369,0.397-2.369,1.256V309.083z"/>
				<path style="fill:#FFFFFF;" d="M616.565,330.439c0,0-0.659,3.158-1.743,5.83c-1.21,2.536-2.207,5.316-2.207,5.316l0.071,0.194
					c-0.359,0.752,0.029,1.766,0.799,2.19c0.771,0.424,1.713,0.189,2.071-0.563c0,0,1.279-2.634,2.545-5.284
					c1.088-2.671,2.182-5.333,2.182-5.333c0.317-0.778-0.491-2.201-1.284-2.584c-0.793-0.384-1.729,0.233-2.432,0.233H616.565z"/>
				<path style="fill:#FFFFFF;" d="M607.704,350.401l-6.855,9.873c-0.474,0.668-0.421,1.933,0.276,2.469
					c0.697,0.535,1.584,0.571,2.058-0.097l6.58-9.213c0.477-0.67,0.536-2.192-0.163-2.73c-0.7-0.539-2.18-2.521-1.892-0.303H607.704
					z"/>
				<path style="fill:#FFFFFF;" d="M593.263,370.363l-7.717,7.786c-0.556,0.587-0.457,1.329,0.166,1.941
					c0.623,0.612,1.603,0.516,2.159-0.071l7.827-8.294c0.559-0.589,0.423-1.133-0.203-1.748c-0.625-0.616-1.46,0.386-2.227,0.386
					H593.263z"/>
				<path style="fill:#FFFFFF;" d="M577.496,385.441c0,0-0.526,0.475-1.315,1.188c-0.795,0.696-1.854,1.624-2.914,2.552
					c-2.139,1.862-4.278,3.723-4.278,3.723c-0.604,0.526-0.635,1.484-0.069,2.14c0.566,0.656,1.513,0.763,2.117,0.238
					c0,0,2.142-1.858,4.283-3.717c1.075-0.939,2.149-1.878,2.955-2.582c0.79-0.712,1.317-1.186,1.317-1.186
					c0.598-0.538,0.613-1.502,0.035-2.153c-0.579-0.651-1.532-0.742-2.129-0.203L577.496,385.441z"/>
				<path style="fill:#FFFFFF;" d="M560.312,400.08l-8.949,6.968c-0.626,0.487-0.704,1.43-0.174,2.106
					c0.53,0.676,1.466,0.829,2.092,0.342l8.958-6.957c0.629-0.489,0.709-1.435,0.177-2.115c-0.532-0.679-1.473-0.834-2.102-0.345
					L560.312,400.08z"/>
				<path style="fill:#FFFFFF;" d="M542.269,413.685l-9.384,6.382c-0.651,0.442-0.783,1.365-0.296,2.062
					c0.487,0.697,1.409,0.905,2.059,0.463l9.392-6.37c0.654-0.443,0.788-1.371,0.299-2.072c-0.489-0.701-1.415-0.91-2.069-0.466
					L542.269,413.685z"/>
				<path style="fill:#FFFFFF;" d="M523.358,426.064l-9.84,5.685c-0.676,0.39-0.869,1.289-0.431,2.008
					c0.438,0.719,1.34,0.986,2.016,0.596l9.847-5.672c0.68-0.391,0.874-1.294,0.435-2.016c-0.439-0.723-1.346-0.992-2.026-0.601
					L523.358,426.064z"/>
				<path style="fill:#FFFFFF;" d="M503.336,436.728l-10.208,4.971c-0.702,0.329-0.91,1.259-0.531,1.999
					c0.38,0.74,1.281,1.105,1.983,0.777l10.332-4.816c0.705-0.33,0.871-1.319,0.49-2.063c-0.381-0.744-1.481-1.348-2.064-0.869
					L503.336,436.728z"/>
				<path style="fill:#FFFFFF;" d="M482.842,446.536l-10.276,4.911c-0.693,0.331-0.945,1.192-0.564,1.923
					c0.381,0.731,1.249,1.056,1.941,0.725l10.283-4.899c0.696-0.332,0.951-1.196,0.569-1.931c-0.382-0.735-1.256-1.062-1.952-0.73
					L482.842,446.536z"/>
				<path style="fill:#FFFFFF;" d="M462.352,456.589l-10.05,5.327c-0.671,0.356-0.888,1.22-0.484,1.931
					c0.403,0.711,1.273,1,1.943,0.644l10.057-5.314c0.674-0.356,0.893-1.225,0.489-1.939c-0.404-0.715-1.279-1.005-1.953-0.649
					L462.352,456.589z"/>
				<path style="fill:#FFFFFF;" d="M442.326,467.48l-9.799,5.75c-0.648,0.38-0.827,1.247-0.402,1.936
					c0.426,0.689,1.295,0.941,1.942,0.561l9.807-5.738c0.651-0.381,0.833-1.252,0.406-1.945c-0.427-0.693-1.301-0.946-1.953-0.565
					L442.326,467.48z"/>
				<path style="fill:#FFFFFF;" d="M422.815,479.224l-9.522,6.18c-0.623,0.405-0.765,1.273-0.317,1.939
					c0.448,0.667,1.315,0.88,1.939,0.475l9.53-6.169c0.627-0.406,0.77-1.278,0.321-1.948c-0.449-0.67-1.322-0.884-1.949-0.479
					L422.815,479.224z"/>
				<path style="fill:#FFFFFF;" d="M403.872,491.835l-9.216,6.615c-0.597,0.429-0.701,1.296-0.23,1.938
					c0.47,0.642,1.334,0.816,1.931,0.387l9.225-6.604c0.601-0.43,0.705-1.302,0.234-1.947c-0.471-0.646-1.341-0.82-1.942-0.39
					L403.872,491.835z"/>
				<path style="fill:#FFFFFF;" d="M385.555,505.32l-8.882,7.053c-0.57,0.453-0.633,1.319-0.142,1.935
					c0.491,0.616,1.351,0.749,1.92,0.296l8.891-7.042c0.573-0.454,0.638-1.324,0.145-1.944c-0.493-0.62-1.358-0.754-1.931-0.299
					L385.555,505.32z"/>
				<path style="fill:#FFFFFF;" d="M367.923,519.685l-8.516,7.491c-0.541,0.476-0.565,1.338-0.052,1.927
					c0.512,0.588,1.365,0.68,1.906,0.204l8.526-7.481c0.544-0.477,0.569-1.344,0.055-1.936c-0.514-0.592-1.372-0.684-1.917-0.207
					L367.923,519.685z"/>
				<path style="fill:#FFFFFF;" d="M351.039,534.928l-8.119,7.927c-0.511,0.499-0.493,1.356,0.039,1.915
					c0.532,0.559,1.376,0.609,1.887,0.11l8.129-7.917c0.514-0.5,0.497-1.362-0.037-1.924c-0.534-0.563-1.384-0.613-1.898-0.112
					L351.039,534.928z"/>
				<path style="fill:#FFFFFF;" d="M334.967,551.046l-7.689,8.359c-0.479,0.52-0.42,1.37,0.132,1.898
					c0.551,0.528,1.385,0.535,1.863,0.015l7.699-8.349c0.482-0.522,0.424-1.376-0.13-1.908c-0.553-0.531-1.393-0.539-1.874-0.016
					L334.967,551.046z"/>
				<path style="fill:#FFFFFF;" d="M319.774,568.028l-7.229,8.793c-0.445,0.541-0.344,1.381,0.225,1.877
					c0.569,0.495,1.39,0.459,1.835-0.082l7.24-8.784c0.448-0.544,0.348-1.388-0.224-1.887c-0.572-0.499-1.398-0.463-1.846,0.081
					L319.774,568.028z"/>
				<path style="fill:#FFFFFF;" d="M305.522,585.877l-6.723,9.209c-0.409,0.561-0.267,1.389,0.319,1.85
					c0.586,0.461,1.392,0.381,1.802-0.18l6.734-9.2c0.413-0.563,0.27-1.396-0.319-1.86c-0.589-0.464-1.4-0.383-1.812,0.18
					L305.522,585.877z"/>
				<path style="fill:#FFFFFF;" d="M292.306,604.556l-6.173,9.614c-0.372,0.58-0.186,1.393,0.415,1.818
					c0.602,0.424,1.39,0.299,1.762-0.28l6.185-9.606c0.375-0.582,0.189-1.401-0.415-1.828c-0.604-0.427-1.398-0.302-1.773,0.28
					L292.306,604.556z"/>
				<path style="fill:#FFFFFF;" d="M280.216,624.042c0,0-1.405,2.496-2.81,4.992c-0.695,1.231-1.421,2.517-1.921,3.464
					c-0.51,0.947-0.851,1.577-0.851,1.577c-0.325,0.602-0.085,1.396,0.535,1.774c0.62,0.378,1.385,0.197,1.71-0.405
					c0,0,0.341-0.63,0.853-1.576c0.505-0.955,1.19-2.162,1.904-3.425c1.408-2.494,2.816-4.988,2.816-4.988
					c0.338-0.598,0.111-1.4-0.506-1.791c-0.617-0.39-1.391-0.222-1.729,0.376L280.216,624.042z"/>
				<path style="fill:#FFFFFF;" d="M269.367,644.343l-4.907,10.399c-0.29,0.614-0.015,1.389,0.614,1.732
					c0.629,0.343,1.373,0.125,1.662-0.49l4.919-10.392c0.292-0.617,0.016-1.397-0.615-1.742c-0.632-0.345-1.381-0.126-1.673,0.491
					L269.367,644.343z"/>
				<path style="fill:#FFFFFF;" d="M259.872,665.4l-4.186,10.763c-0.244,0.628,0.076,1.379,0.716,1.677
					c0.64,0.298,1.356,0.031,1.6-0.597l4.199-10.757c0.247-0.631-0.075-1.387-0.717-1.687c-0.643-0.3-1.364-0.032-1.61,0.6
					L259.872,665.4z"/>
				<path style="fill:#FFFFFF;" d="M251.861,687.182l-3.388,11.102c-0.195,0.641,0.172,1.362,0.82,1.612
					c0.648,0.249,1.332-0.067,1.527-0.708l3.401-11.097c0.198-0.644-0.171-1.37-0.822-1.622c-0.652-0.251-1.34,0.067-1.537,0.712
					L251.861,687.182z"/>
				<path style="fill:#FFFFFF;" d="M245.49,709.633l-2.509,11.403c-0.143,0.651,0.271,1.338,0.925,1.535
					c0.654,0.197,1.3-0.171,1.443-0.822l2.522-11.398c0.145-0.655-0.271-1.346-0.928-1.544c-0.658-0.199-1.308,0.171-1.453,0.826
					L245.49,709.633z"/>
				<path style="fill:#FFFFFF;" d="M240.925,732.668l-1.548,11.649c-0.087,0.658,0.374,1.304,1.03,1.445
					c0.656,0.14,1.259-0.278,1.346-0.936l1.562-11.647c0.089-0.661-0.374-1.312-1.035-1.454c-0.66-0.142-1.267,0.279-1.355,0.941
					L240.925,732.668z"/>
				<path style="fill:#FFFFFF;" d="M238.332,756.172l-0.501,11.825c-0.028,0.66,0.48,1.26,1.134,1.34
					c0.654,0.08,1.207-0.389,1.235-1.049l0.515-11.824c0.029-0.664-0.481-1.267-1.139-1.349c-0.658-0.081-1.214,0.391-1.243,1.055
					L238.332,756.172z"/>
				<path style="fill:#FFFFFF;" d="M237.889,779.989l0.489,9.832c0.033,0.657,0.584,1.205,1.23,1.223
					c0.647,0.018,1.145-0.5,1.112-1.157l-0.478-9.832c-0.032-0.661-0.585-1.211-1.235-1.23c-0.65-0.019-1.151,0.502-1.119,1.162
					V779.989z"/>
			</g>
			<g>
				<polygon style="fill:#7D97F4;" points="878.915,252.346 872.391,296.12 904.842,281.719 				"/>
				<path style="fill:#91B3FA;" d="M1079.501,256.557L945.834,342.63c-2.559,1.648-5.679,2.183-8.641,1.483
					c-2.962-0.7-5.512-2.576-7.062-5.195l-81.363-137.46c-0.932-1.574-0.815-3.556,0.294-5.01c1.109-1.454,2.99-2.09,4.754-1.608
					L1079.501,256.557z"/>
				<polygon style="fill:#7D97F4;" points="878.928,252.354 1079.501,256.557 891.99,274.578 889.664,286.64 				"/>
				<polygon style="fill:#7D97F4;" points="899.834,287.696 872.391,296.12 891.99,274.578 				"/>
			</g>
		</g>
	</g>
</g>
</svg>
